<?xml version="1.0" encoding="UTF-8" standalone="no"?><!DOCTYPE svg PUBLIC "-//W3C//DTD SVG 1.1//EN" "http://www.w3.org/Graphics/SVG/1.1/DTD/svg11.dtd"><svg width="100%" height="100%" viewBox="0 0 834 417" version="1.1" xmlns="http://www.w3.org/2000/svg" xmlns:xlink="http://www.w3.org/1999/xlink" xml:space="preserve" xmlns:serif="http://www.serif.com/" style="fill-rule:evenodd;clip-rule:evenodd;stroke-linejoin:round;stroke-miterlimit:2;"><rect id="logo" x="-0" y="0" width="833.333" height="416.667" style="fill:none;"/><clipPath id="_clip1"><rect x="-0" y="0" width="833.333" height="416.667"/></clipPath><g clip-path="url(#_clip1)"><g><path d="M57.083,294.284c-0,1.079 -0,1.739 0.171,1.976c0.174,0.185 1.035,0.302 3.959,0.302c2.07,-0 4.247,-0.241 5.915,-1.558c1.547,-1.256 2.867,-3.356 2.867,-7.429c-0,-4.732 -2.81,-9.224 -9.181,-9.224c-3.56,0 -3.731,0.238 -3.731,1.916l-0,14.017Zm-4.706,-8.564c-0,-5.691 -0.174,-6.712 -2.526,-7.007l-1.838,-0.241c-0.402,-0.302 -0.402,-1.26 0.06,-1.498c3.212,-0.301 7.174,-0.479 12.798,-0.479c3.557,0 6.943,0.299 9.586,1.796c2.753,1.497 4.763,4.193 4.763,8.387c-0,5.69 -4.307,8.802 -7.174,10.001c-0.289,0.358 -0,0.961 0.284,1.44c4.592,7.724 7.637,12.52 11.539,15.93c0.975,0.901 2.408,1.561 3.959,1.678c0.288,0.117 0.345,0.6 0.057,0.838c-0.516,0.184 -1.434,0.301 -2.526,0.301c-4.876,0 -7.804,-1.497 -11.88,-7.55c-1.494,-2.214 -3.845,-6.343 -5.624,-9.04c-0.86,-1.319 -1.778,-1.916 -4.076,-1.916c-2.582,0 -2.696,0.057 -2.696,1.313l-0,7.55c-0,6.287 0.114,7.007 3.443,7.486l1.206,0.181c0.345,0.298 0.231,1.316 -0.114,1.5c-2.582,-0.123 -4.535,-0.184 -6.833,-0.184c-2.408,0 -4.475,0.061 -7.174,0.184c-0.342,-0.184 -0.459,-1.081 -0.114,-1.5l1.433,-0.181c3.333,-0.419 3.447,-1.199 3.447,-7.486l-0,-21.503Z" style="fill:#114984;fill-rule:nonzero;"/><path d="M92.67,299.076c4.248,-0 5.51,-0.238 5.969,-0.6c0.171,-0.117 0.345,-0.358 0.345,-1.138c0,-1.675 -1.088,-3.775 -4.421,-3.775c-3.383,-0 -6.31,3.235 -6.367,5.215c-0,0.117 -0,0.298 0.398,0.298l4.076,-0Zm-3.557,1.795c-1.493,0 -1.55,0.121 -1.55,1.621c-0,6.046 3.386,11.201 9.525,11.201c1.896,-0 3.504,-0.6 5.282,-2.938c0.573,-0.177 0.975,0.181 1.035,0.72c-1.895,4.073 -6.029,5.571 -9.013,5.571c-3.731,-0 -6.659,-1.678 -8.323,-3.953c-1.722,-2.338 -2.408,-5.151 -2.408,-7.787c-0,-7.369 4.649,-13.539 11.535,-13.539c4.937,0 8.149,3.537 8.149,7.128c0,0.837 -0.114,1.32 -0.228,1.558c-0.174,0.361 -0.978,0.418 -3.386,0.418l-10.618,0Z" style="fill:#114984;fill-rule:nonzero;"/><path d="M140.711,300.813c-0,-4.073 -1.722,-6.17 -5.339,-6.17c-2.181,0 -3.959,1.022 -4.763,2.097c-0.69,0.901 -0.861,1.497 -0.861,3.594l-0,9.167c-0,4.311 0.114,4.911 2.18,5.205l1.206,0.185c0.402,0.298 0.288,1.316 -0.114,1.497c-1.721,-0.121 -3.386,-0.181 -5.396,-0.181c-2.066,-0 -3.614,0.06 -5.221,0.181c-0.402,-0.181 -0.52,-1.199 -0.114,-1.497l1.031,-0.185c2.124,-0.355 2.181,-0.894 2.181,-5.205l-0,-8.688c-0,-4.013 -1.722,-6.17 -5.282,-6.17c-2.352,0 -3.959,1.079 -4.82,2.157c-0.573,0.72 -0.861,1.498 -0.861,3.413l0,9.288c0,4.311 0.114,4.85 2.181,5.205l1.035,0.185c0.402,0.298 0.284,1.316 -0.118,1.497c-1.547,-0.121 -3.212,-0.181 -5.221,-0.181c-2.067,-0 -3.789,0.06 -5.567,0.181c-0.402,-0.181 -0.516,-1.199 -0.117,-1.497l1.38,-0.185c2.123,-0.294 2.18,-0.894 2.18,-5.205l0,-10.483c0,-2.338 0,-2.636 -1.547,-3.715l-0.519,-0.358c-0.232,-0.241 -0.232,-0.901 0.056,-1.079c1.32,-0.479 4.592,-2.036 5.741,-2.937c0.231,-0 0.516,0.12 0.63,0.422c-0.114,1.376 -0.114,2.274 -0.114,2.817c0,0.358 0.228,0.656 0.633,0.656c2.181,-1.618 4.877,-3.054 7.634,-3.054c2.867,-0 4.474,1.075 6.082,3.533c0.516,0.121 0.918,-0.12 1.434,-0.479c2.297,-1.678 5.108,-3.054 7.807,-3.054c4.592,-0 6.83,3.292 6.83,7.429l-0,10.302c-0,4.311 0.113,4.911 2.18,5.205l1.38,0.185c0.399,0.298 0.285,1.316 -0.117,1.497c-1.896,-0.121 -3.557,-0.181 -5.567,-0.181c-2.067,-0 -3.617,0.06 -5.222,0.181c-0.402,-0.181 -0.519,-1.199 -0.114,-1.497l1.032,-0.185c2.124,-0.355 2.181,-0.894 2.181,-5.205l-0,-8.688Z" style="fill:#114984;fill-rule:nonzero;"/><path d="M160.171,314.351c1.149,0 2.927,-0.901 3.5,-1.497c0.69,-0.72 0.69,-1.557 0.747,-2.817l0.117,-3.533c0,-0.66 -0.231,-0.777 -0.576,-0.777c-0.345,-0 -1.319,0.237 -2.351,0.599c-3.39,1.196 -5.051,2.093 -5.051,4.431c-0,1.019 0.687,3.594 3.614,3.594m3.557,-10.54c0.864,-0.302 0.978,-0.838 0.978,-1.739l0.057,-2.756c0.057,-2.214 -0.63,-5.212 -4.19,-5.212c-1.608,0 -3.557,0.841 -3.674,2.696c-0.057,0.958 -0.114,1.678 -0.573,2.037c-0.861,0.72 -2.412,1.139 -3.273,1.139c-0.515,-0 -0.803,-0.302 -0.803,-0.838c-0,-3.118 6.487,-7.368 10.678,-7.368c4.133,-0 6.139,2.515 5.968,7.01l-0.345,10.42c-0.114,2.753 0.402,5.212 2.64,5.212c0.572,-0 1.092,-0.181 1.437,-0.362c0.284,-0.181 0.572,-0.419 0.743,-0.419c0.231,0 0.405,0.362 0.405,0.781c0,0.294 -2.013,2.636 -4.823,2.636c-1.376,-0 -2.756,-0.54 -3.731,-1.859c-0.231,-0.355 -0.573,-0.838 -0.918,-0.838c-0.402,0 -1.092,0.54 -2.241,1.196c-1.262,0.72 -2.522,1.501 -4.129,1.501c-1.665,-0 -3.042,-0.483 -4.02,-1.377c-1.088,-1.022 -1.778,-2.519 -1.778,-4.194c-0,-2.337 1.092,-3.717 4.763,-5.094l6.829,-2.572Z" style="fill:#114984;fill-rule:nonzero;"/><path d="M179.227,299.017c0,-2.338 0,-2.636 -1.547,-3.711l-0.519,-0.362c-0.231,-0.241 -0.231,-0.897 0.057,-1.078c1.319,-0.479 4.364,-2.037 5.797,-2.938c0.288,0.064 0.459,0.185 0.459,0.422l0,3.474c0,0.298 0.057,0.482 0.171,0.539c2.01,-1.738 4.19,-3.594 6.317,-3.594c1.434,0 2.583,0.958 2.583,2.398c-0,1.977 -1.551,2.754 -2.469,2.754c-0.576,-0 -0.864,-0.181 -1.263,-0.419c-0.864,-0.603 -1.721,-0.961 -2.525,-0.961c-0.921,-0 -1.608,0.542 -2.067,1.199c-0.576,0.84 -0.747,2.575 -0.747,4.612l0,8.149c0,4.311 0.114,5.031 2.298,5.208l2.063,0.181c0.402,0.298 0.288,1.317 -0.114,1.501c-2.696,-0.124 -4.361,-0.184 -6.37,-0.184c-2.067,-0 -3.788,0.06 -5.279,0.184c-0.402,-0.184 -0.519,-1.203 -0.117,-1.501l1.092,-0.181c2.123,-0.358 2.18,-0.897 2.18,-5.208l0,-10.484Z" style="fill:#114984;fill-rule:nonzero;"/><path d="M197.652,282.424c0,-3.534 -0.057,-3.892 -1.778,-4.971l-0.576,-0.362c-0.285,-0.177 -0.285,-1.018 -0,-1.195c1.437,-0.479 4.133,-1.377 6.2,-2.516c0.231,0 0.458,0.121 0.572,0.359c-0.057,1.795 -0.171,4.793 -0.171,7.429l0,20.545c0,0.777 0.057,0.898 1.035,0.898c1.263,-0 2.352,-0.66 3.902,-2.335l2.352,-2.636c1.608,-1.799 2.009,-2.455 2.009,-2.757c0,-0.298 -0.288,-0.479 -1.262,-0.599l-1.377,-0.181c-0.516,-0.177 -0.516,-1.316 0,-1.494l1.32,0c2.525,0 5.912,-0.12 9.127,-0.482c0.402,0.181 0.459,1.199 0.114,1.497l-1.839,0.358c-1.146,0.242 -2.12,0.841 -3.614,2.101c-2.237,1.855 -4.19,4.009 -5.222,5.03c-0.69,0.657 -0.747,0.958 -0.402,1.437c0.975,1.377 1.893,2.516 3.845,4.79c2.238,2.639 4.247,4.974 5.393,6.113c0.807,0.777 1.953,1.138 2.984,1.316l0.804,0.121c0.402,0.298 0.345,1.316 -0.114,1.5c-1.664,-0.124 -3.617,-0.184 -5.453,-0.184c-2.294,-0 -4.304,0.06 -5.968,0.184c-0.459,-0.244 -0.516,-1.259 -0.114,-1.5l1.032,-0.181c0.864,-0.118 1.436,-0.238 1.436,-0.597c0,-0.358 -0.231,-0.777 -0.978,-1.678l-6.139,-7.429c-0.516,-0.599 -1.149,-0.837 -1.779,-0.837c-1.035,0 -1.092,0.178 -1.092,2.037l0,3.295c0,4.311 0.114,4.911 2.181,5.209l1.38,0.181c0.402,0.298 0.285,1.316 -0.117,1.5c-1.893,-0.124 -3.557,-0.184 -5.567,-0.184c-2.067,-0 -3.788,0.06 -5.51,0.184c-0.402,-0.184 -0.516,-1.202 -0.057,-1.5l1.263,-0.181c2.123,-0.298 2.18,-0.898 2.18,-5.209l0,-27.076Z" style="fill:#114984;fill-rule:nonzero;"/><path d="M230.599,314.351c1.148,0 2.927,-0.901 3.5,-1.497c0.69,-0.72 0.69,-1.557 0.747,-2.817l0.117,-3.533c-0,-0.66 -0.231,-0.777 -0.576,-0.777c-0.345,-0 -1.32,0.237 -2.351,0.599c-3.39,1.196 -5.055,2.093 -5.055,4.431c0,1.019 0.69,3.594 3.618,3.594m3.557,-10.54c0.864,-0.302 0.978,-0.838 0.978,-1.739l0.057,-2.756c0.057,-2.214 -0.63,-5.212 -4.19,-5.212c-1.608,0 -3.558,0.841 -3.675,2.696c-0.057,0.958 -0.114,1.678 -0.573,2.037c-0.86,0.72 -2.411,1.139 -3.272,1.139c-0.516,-0 -0.804,-0.302 -0.804,-0.838c0,-3.118 6.488,-7.368 10.678,-7.368c4.133,-0 6.14,2.515 5.969,7.01l-0.345,10.42c-0.114,2.753 0.402,5.212 2.639,5.212c0.573,-0 1.092,-0.181 1.437,-0.362c0.285,-0.181 0.573,-0.419 0.744,-0.419c0.231,0 0.405,0.362 0.405,0.781c-0,0.294 -2.013,2.636 -4.823,2.636c-1.38,-0 -2.757,-0.54 -3.731,-1.859c-0.232,-0.355 -0.573,-0.838 -0.918,-0.838c-0.402,0 -1.092,0.54 -2.238,1.196c-1.266,0.72 -2.525,1.501 -4.133,1.501c-1.664,-0 -3.041,-0.483 -4.019,-1.377c-1.089,-1.022 -1.779,-2.519 -1.779,-4.194c0,-2.337 1.092,-3.717 4.763,-5.094l6.83,-2.572Z" style="fill:#114984;fill-rule:nonzero;"/><path d="M252.583,308.061c-0,2.097 0.458,3.952 1.433,5.212c0.978,1.259 2.526,1.976 4.361,1.976c5.396,-0 7.523,-4.793 7.523,-9.941c-0,-6.17 -3.045,-10.966 -8.725,-10.966c-1.722,-0 -3.102,0.419 -3.902,0.961c-0.577,0.419 -0.69,1.079 -0.69,3.413l-0,9.345Zm-4.248,-25.636c0,-3.534 -0.056,-3.892 -1.778,-4.974l-0.576,-0.359c-0.285,-0.177 -0.285,-1.018 -0,-1.199c1.32,-0.536 4.076,-1.313 6.257,-2.512c0.231,0 0.458,0.121 0.572,0.359c-0.114,2.096 -0.227,4.793 -0.227,7.429l-0,11.321c-0,1.015 0.227,1.259 0.572,1.259c1.494,-0.904 3.789,-1.979 6.602,-1.979c6.541,-0 10.963,5.151 10.963,11.739c-0,7.968 -5.51,13.539 -13.2,13.539c-2.124,-0 -3.732,-0.422 -4.88,-0.781c-1.206,-0.422 -1.95,-0.777 -2.412,-0.777c-0.459,0 -0.918,0.476 -1.203,0.898c-0.06,0.06 -0.117,0.06 -0.231,0.06c-0.231,0 -0.459,-0.121 -0.572,-0.362c0.057,-0.837 0.113,-1.973 0.113,-5.087l0,-28.574Z" style="fill:#114984;fill-rule:nonzero;"/><path d="M282.315,309.5c0,4.311 0.114,4.911 2.181,5.209l1.376,0.181c0.406,0.298 0.289,1.316 -0.113,1.5c-1.893,-0.12 -3.558,-0.184 -5.567,-0.184c-2.067,-0 -3.788,0.064 -5.51,0.184c-0.402,-0.184 -0.516,-1.202 -0.114,-1.5l1.32,-0.181c2.123,-0.298 2.18,-0.898 2.18,-5.209l0,-27.076c0,-3.534 -0.057,-3.892 -1.778,-4.971l-0.576,-0.362c-0.285,-0.177 -0.285,-1.015 -0,-1.195c1.437,-0.479 4.133,-1.377 6.199,-2.516c0.232,0 0.459,0.121 0.573,0.359c-0.057,1.795 -0.171,4.793 -0.171,7.429l0,28.332Z" style="fill:#114984;fill-rule:nonzero;"/><path d="M298.501,299.076c4.248,-0 5.51,-0.238 5.969,-0.6c0.171,-0.117 0.345,-0.358 0.345,-1.138c0,-1.675 -1.088,-3.775 -4.421,-3.775c-3.383,-0 -6.31,3.235 -6.367,5.215c-0,0.117 -0,0.298 0.398,0.298l4.076,-0Zm-3.557,1.795c-1.493,0 -1.55,0.121 -1.55,1.621c-0,6.046 3.386,11.201 9.525,11.201c1.896,-0 3.504,-0.6 5.282,-2.938c0.573,-0.177 0.975,0.181 1.035,0.72c-1.895,4.073 -6.029,5.571 -9.013,5.571c-3.731,-0 -6.659,-1.678 -8.323,-3.953c-1.722,-2.338 -2.408,-5.151 -2.408,-7.787c-0,-7.369 4.649,-13.539 11.535,-13.539c4.937,0 8.149,3.537 8.149,7.128c0,0.837 -0.114,1.32 -0.228,1.558c-0.174,0.361 -0.978,0.418 -3.386,0.418l-10.618,0Z" style="fill:#114984;fill-rule:nonzero;"/><path d="M343.673,307.224c-0,6.287 0.117,7.188 3.443,7.482l1.839,0.185c0.345,0.237 0.231,1.316 -0.117,1.497c-3.269,-0.121 -5.222,-0.181 -7.517,-0.181c-2.297,-0 -4.304,0.06 -7.978,0.181c-0.345,-0.181 -0.459,-1.199 0,-1.497l2.067,-0.185c3.269,-0.294 3.557,-1.195 3.557,-7.482l-0,-26.776c-0,-1.858 -0,-1.915 -1.722,-1.915l-3.155,-0c-2.468,-0 -5.627,0.117 -7.061,1.497c-1.376,1.313 -1.952,2.636 -2.582,4.133c-0.459,0.358 -1.263,0.06 -1.494,-0.422c0.918,-2.693 1.782,-6.528 2.181,-8.926c0.174,-0.118 0.921,-0.178 1.092,-0c0.345,1.916 2.237,1.859 4.88,1.859l23.245,-0c3.098,-0 3.614,-0.118 4.475,-1.675c0.288,-0.121 0.917,-0.064 1.035,0.177c-0.634,2.456 -1.035,7.306 -0.861,9.104c-0.231,0.479 -1.206,0.479 -1.494,0.121c-0.171,-1.497 -0.576,-3.715 -1.434,-4.371c-1.319,-1.022 -3.503,-1.497 -6.658,-1.497l-4.077,-0c-1.721,-0 -1.664,0.057 -1.664,2.033l-0,26.658Z" style="fill:#114984;fill-rule:nonzero;"/><path d="M358.886,299.017c-0,-2.338 -0,-2.636 -1.548,-3.711l-0.519,-0.362c-0.231,-0.241 -0.231,-0.897 0.057,-1.078c1.32,-0.479 4.364,-2.037 5.798,-2.938c0.288,0.064 0.459,0.185 0.459,0.422l-0,3.474c-0,0.298 0.057,0.482 0.171,0.539c2.009,-1.738 4.19,-3.594 6.317,-3.594c1.433,0 2.582,0.958 2.582,2.398c0,1.977 -1.551,2.754 -2.468,2.754c-0.576,-0 -0.865,-0.181 -1.263,-0.419c-0.864,-0.603 -1.722,-0.961 -2.526,-0.961c-0.921,-0 -1.607,0.542 -2.066,1.199c-0.576,0.84 -0.747,2.575 -0.747,4.612l-0,8.149c-0,4.311 0.114,5.031 2.298,5.208l2.063,0.181c0.402,0.298 0.288,1.317 -0.114,1.501c-2.696,-0.124 -4.361,-0.184 -6.371,-0.184c-2.066,-0 -3.788,0.06 -5.278,0.184c-0.402,-0.184 -0.519,-1.203 -0.118,-1.501l1.092,-0.181c2.124,-0.358 2.181,-0.897 2.181,-5.208l-0,-10.484Z" style="fill:#114984;fill-rule:nonzero;"/><path d="M382.647,314.351c1.149,0 2.928,-0.901 3.5,-1.497c0.69,-0.72 0.69,-1.557 0.747,-2.817l0.118,-3.533c-0,-0.66 -0.232,-0.777 -0.577,-0.777c-0.344,-0 -1.319,0.237 -2.351,0.599c-3.389,1.196 -5.054,2.093 -5.054,4.431c-0,1.019 0.69,3.594 3.617,3.594m3.557,-10.54c0.865,-0.302 0.978,-0.838 0.978,-1.739l0.057,-2.756c0.057,-2.214 -0.629,-5.212 -4.19,-5.212c-1.607,0 -3.557,0.841 -3.674,2.696c-0.057,0.958 -0.114,1.678 -0.573,2.037c-0.861,0.72 -2.411,1.139 -3.272,1.139c-0.516,-0 -0.804,-0.302 -0.804,-0.838c-0,-3.118 6.488,-7.368 10.678,-7.368c4.133,-0 6.139,2.515 5.969,7.01l-0.345,10.42c-0.114,2.753 0.401,5.212 2.639,5.212c0.573,-0 1.092,-0.181 1.437,-0.362c0.285,-0.181 0.573,-0.419 0.743,-0.419c0.231,0 0.406,0.362 0.406,0.781c-0,0.294 -2.013,2.636 -4.824,2.636c-1.379,-0 -2.756,-0.54 -3.731,-1.859c-0.231,-0.355 -0.573,-0.838 -0.918,-0.838c-0.401,0 -1.091,0.54 -2.237,1.196c-1.266,0.72 -2.525,1.501 -4.133,1.501c-1.665,-0 -3.041,-0.483 -4.019,-1.377c-1.089,-1.022 -1.779,-2.519 -1.779,-4.194c0,-2.337 1.092,-3.717 4.763,-5.094l6.829,-2.572Z" style="fill:#114984;fill-rule:nonzero;"/><path d="M400.786,298.536c-0.86,-2.214 -1.38,-4.129 -3.443,-4.431l-1.149,-0.181c-0.345,-0.479 -0.288,-1.316 0.171,-1.497c1.437,0.121 3.443,0.181 5.396,0.181c1.551,-0 2.7,-0.06 4.649,-0.181c0.402,0.241 0.459,1.196 0.057,1.497l-0.687,0.121c-1.781,0.298 -1.838,0.599 -1.262,2.398c1.319,4.13 2.984,8.323 4.304,11.438c0.516,1.199 0.747,1.739 0.917,1.916c0.232,-0.177 0.63,-1.015 1.092,-2.274l3.269,-8.806c0.804,-2.097 1.035,-3.353 1.035,-3.714c0,-0.54 -0.345,-0.777 -1.035,-0.898l-1.319,-0.181c-0.342,-0.418 -0.285,-1.256 0.114,-1.497c1.778,0.121 3.215,0.181 4.304,0.181c1.436,-0 2.411,-0.06 4.022,-0.181c0.399,0.241 0.456,1.139 0.111,1.497l-0.858,0.121c-2.009,0.298 -2.525,1.855 -4.193,5.211c-0.801,1.615 -4.361,10.303 -5.279,12.755c-0.576,1.501 -1.149,2.881 -1.896,4.914c-0.113,0.181 -0.341,0.241 -0.572,0.241c-0.285,-0 -0.573,-0.06 -0.747,-0.241c-0.459,-1.675 -1.32,-4.01 -2.181,-6.227l-4.82,-12.162Z" style="fill:#114984;fill-rule:nonzero;"/><path d="M431.837,299.076c4.251,-0 5.513,-0.238 5.972,-0.6c0.171,-0.117 0.342,-0.358 0.342,-1.138c-0,-1.675 -1.085,-3.775 -4.418,-3.775c-3.386,-0 -6.31,3.235 -6.371,5.215c0,0.117 0,0.298 0.399,0.298l4.076,-0Zm-3.557,1.795c-1.494,0 -1.547,0.121 -1.547,1.621c-0,6.046 3.383,11.201 9.525,11.201c1.893,-0 3.501,-0.6 5.279,-2.938c0.576,-0.177 0.978,0.181 1.035,0.72c-1.896,4.073 -6.025,5.571 -9.01,5.571c-3.734,-0 -6.658,-1.678 -8.326,-3.953c-1.719,-2.338 -2.405,-5.151 -2.405,-7.787c-0,-7.369 4.645,-13.539 11.532,-13.539c4.94,0 8.152,3.537 8.152,7.128c0,0.837 -0.117,1.32 -0.231,1.558c-0.171,0.361 -0.975,0.418 -3.386,0.418l-10.618,0Z" style="fill:#114984;fill-rule:nonzero;"/><path d="M453.134,309.5c0,4.311 0.114,4.911 2.181,5.209l1.376,0.181c0.406,0.298 0.285,1.316 -0.114,1.5c-1.892,-0.12 -3.557,-0.184 -5.566,-0.184c-2.067,-0 -3.789,0.064 -5.507,0.184c-0.405,-0.184 -0.519,-1.202 -0.117,-1.5l1.32,-0.181c2.123,-0.298 2.177,-0.898 2.177,-5.209l-0,-27.076c-0,-3.534 -0.054,-3.892 -1.779,-4.971l-0.573,-0.362c-0.284,-0.177 -0.284,-1.015 0,-1.195c1.437,-0.479 4.134,-1.377 6.2,-2.516c0.228,0 0.459,0.121 0.576,0.359c-0.06,1.795 -0.174,4.793 -0.174,7.429l0,28.332Z" style="fill:#114984;fill-rule:nonzero;"/><path d="M510.13,310.096c-0,2.398 0.345,3.835 1.377,4.257c0.174,0.177 0.174,0.539 -0.054,0.713c-0.693,0 -1.725,0.245 -2.814,0.543c-3.044,0.837 -7.177,1.557 -10.276,1.557c-6.832,0 -13.086,-1.976 -17.504,-6.648c-3.446,-3.594 -5.282,-8.323 -5.282,-13.599c0,-5.088 1.608,-10.242 5.168,-14.195c3.846,-4.193 9.523,-7.01 18.191,-7.01c3.273,0 6.314,0.66 7.289,0.901c1.091,0.238 2.87,0.66 3.557,0.539c-0,1.976 0.348,5.095 0.864,8.685c-0.171,0.476 -1.203,0.54 -1.551,0.181c-1.608,-6.471 -5.912,-8.511 -11.763,-8.511c-11.137,0 -16.014,8.27 -16.014,17.253c0,11.499 5.681,20.549 17.22,20.549c3.56,-0 5.677,-0.781 6.313,-1.799c0.288,-0.418 0.573,-1.5 0.573,-3.416l0,-2.395c0,-5.031 -0.174,-5.389 -3.735,-5.808l-2.522,-0.301c-0.459,-0.238 -0.402,-1.317 0,-1.498c1.668,0.121 4.82,0.181 8.21,0.181c2.237,0 4.187,-0.06 6.082,-0.181c0.399,0.242 0.459,1.139 0.057,1.498l-0.921,0.12c-2.405,0.298 -2.465,1.976 -2.465,5.031l-0,3.353Z" style="fill:#114984;fill-rule:nonzero;"/><path d="M520.348,299.017c0,-2.338 0,-2.636 -1.55,-3.711l-0.516,-0.362c-0.231,-0.241 -0.231,-0.897 0.057,-1.078c1.323,-0.479 4.364,-2.037 5.798,-2.938c0.288,0.064 0.458,0.185 0.458,0.422l0,3.474c0,0.298 0.057,0.482 0.171,0.539c2.013,-1.738 4.19,-3.594 6.317,-3.594c1.434,0 2.583,0.958 2.583,2.398c-0,1.977 -1.551,2.754 -2.472,2.754c-0.573,-0 -0.861,-0.181 -1.263,-0.419c-0.861,-0.603 -1.718,-0.961 -2.525,-0.961c-0.915,-0 -1.605,0.542 -2.067,1.199c-0.573,0.84 -0.744,2.575 -0.744,4.612l0,8.149c0,4.311 0.118,5.031 2.295,5.208l2.066,0.181c0.402,0.298 0.288,1.317 -0.113,1.501c-2.7,-0.124 -4.361,-0.184 -6.368,-0.184c-2.066,-0 -3.791,0.06 -5.282,0.184c-0.402,-0.184 -0.519,-1.203 -0.117,-1.501l1.095,-0.181c2.117,-0.358 2.177,-0.897 2.177,-5.208l0,-10.484Z" style="fill:#114984;fill-rule:nonzero;"/><path d="M547.268,293.564c-3.788,0 -6.602,3.775 -6.602,10.364c0,5.452 2.355,11.324 7.406,11.324c5.051,-0 6.602,-5.513 6.602,-10.129c-0,-5.087 -1.953,-11.559 -7.406,-11.559m12.339,10.605c0,7.486 -4.933,12.878 -12.111,12.878c-6.599,0 -11.763,-4.853 -11.763,-12.342c-0,-7.547 5.452,-12.936 12.222,-12.936c6.431,0 11.652,5.031 11.652,12.4" style="fill:#114984;fill-rule:nonzero;"/><path d="M571.031,307.401c0,4.133 0.975,6.889 5.339,6.889c1.548,0 3.383,-0.659 4.646,-1.795c0.747,-0.717 1.149,-1.621 1.149,-3.477l-0,-9.82c-0,-3.892 -0.402,-4.013 -2.124,-4.733l-0.743,-0.298c-0.402,-0.241 -0.402,-1.078 0.053,-1.323c2.298,-0.057 5.453,-0.476 6.716,-1.075c0.288,0.063 0.459,0.181 0.519,0.419c-0.117,1.138 -0.171,2.997 -0.171,5.211l0,10.065c0,4.733 0.171,6.528 1.779,6.528c0.686,0 1.433,-0.12 2.237,-0.298c0.345,0.298 0.399,1.494 -0.06,1.732c-2.238,0.482 -5.567,1.082 -7.516,2.22c-0.288,0 -0.576,-0.18 -0.69,-0.418l-0,-2.459c-0,-0.539 -0.175,-0.84 -0.516,-0.84c-1.725,1.138 -4.535,3.118 -7.918,3.118c-5.051,-0 -6.95,-2.636 -6.95,-7.486l-0,-10.005c-0,-3.775 -0,-4.314 -1.719,-5.091l-0.686,-0.298c-0.348,-0.301 -0.288,-1.139 0.11,-1.323c2.643,-0.057 4.881,-0.593 6.143,-1.075c0.345,0.063 0.516,0.181 0.576,0.419c-0.117,1.018 -0.174,2.277 -0.174,5.211l0,10.002Z" style="fill:#114984;fill-rule:nonzero;"/><path d="M600.708,310.158c0,1.916 0.573,2.632 1.722,3.594c1.145,0.897 2.927,1.316 4.129,1.316c4.706,0 7.463,-4.552 7.463,-10.782c-0,-4.789 -2.586,-9.643 -7.747,-9.643c-2.469,0 -4.247,0.958 -4.88,1.678c-0.516,0.657 -0.687,1.558 -0.687,3.534l0,10.303Zm-4.25,-11.14c-0,-2.338 -0,-2.636 -1.548,-3.715l-0.516,-0.358c-0.231,-0.241 -0.231,-0.901 0.057,-1.079c1.491,-0.663 4.19,-2.096 5.681,-3.235c0.348,-0 0.576,0.12 0.687,0.418c-0.111,1.079 -0.228,1.98 -0.228,2.757c-0,0.419 0.117,0.78 0.516,0.78c0.747,-0.361 4.364,-2.816 8.038,-2.816c5.795,-0 9.526,4.91 9.526,10.959c-0,8.33 -5.855,14.319 -14.004,14.319c-1.035,-0 -2.639,-0.121 -3.158,-0.242c-0.516,0.121 -0.801,0.419 -0.801,1.675l0,6.29c0,4.257 0.111,4.793 2.177,5.095l2.238,0.301c0.405,0.295 0.288,1.313 -0.111,1.494c-2.757,-0.12 -4.421,-0.181 -6.431,-0.181c-2.066,0 -3.788,0.061 -5.392,0.181c-0.402,-0.181 -0.516,-1.199 -0.114,-1.494l1.202,-0.184c2.127,-0.298 2.181,-0.898 2.181,-5.212l-0,-25.753Z" style="fill:#114984;fill-rule:nonzero;"/><path d="M617.213,216.937c0,-0 138.084,-6.327 172.288,2.331c13.126,3.319 12.396,6.652 15.317,8.313c2.914,1.655 13.739,2.827 20.19,4.214c6.146,1.319 10.665,6.585 7.02,8.236c-3.637,1.661 -10.667,1.728 -15.772,2.556c-5.101,0.83 -11.562,1.393 -17.209,5.359c-4.844,3.393 -8.31,7.107 -1.752,10.423c6.572,3.326 22.153,4.853 22.153,9.841c0,4.984 -2.458,5.114 -10.48,6.779c-8.022,1.655 -21.875,3.312 -33.548,3.312c-11.669,0 -56.247,10.896 -71.293,7.359c-18.86,-4.441 -37.359,-4.033 -52.666,-4.87c-15.317,-0.824 -25.08,-6.635 -33.829,-7.462c-8.752,-0.824 -33.266,-3.333 -43.472,-8.314c-10.202,-4.984 -4.374,-12.466 -4.374,-12.466c-0,-0 11.662,-0.821 16.773,-2.485c5.108,-1.655 5.832,-6.646 2.191,-8.304c-3.648,-1.664 -26.993,-4.779 -26.266,-10.594c0.727,-5.808 40.876,-13.404 54.729,-14.228" style="fill:#87a187;fill-rule:nonzero;"/><path d="M21.929,264.561c-0,6.053 -4.911,10.963 -10.966,10.963c-6.053,-0 -10.963,-4.91 -10.963,-10.963c0,-6.059 4.91,-10.963 10.963,-10.963c6.055,0 10.966,4.904 10.966,10.963" style="fill:#b9bd9c;fill-rule:nonzero;"/><path d="M10.963,264.561l640.001,0" style="fill:none;fill-rule:nonzero;"/><rect x="10.963" y="262.793" width="640.001" height="3.537" style="fill:#b9bd9c;"/><path d="M661.927,264.561c-0,6.053 -4.9,10.963 -10.963,10.963c-6.052,-0 -10.959,-4.91 -10.959,-10.963c-0,-6.059 4.907,-10.963 10.959,-10.963c6.063,0 10.963,4.904 10.963,10.963" style="fill:#fff;fill-rule:nonzero;"/><path d="M663.099,264.561c0,-6.697 -5.437,-12.135 -12.133,-12.135c-6.697,0 -12.133,5.438 -12.133,12.135c-0,6.698 5.436,12.135 12.133,12.135c6.696,0 12.133,-5.437 12.133,-12.135Zm-2.345,0c0,5.404 -4.386,9.791 -9.788,9.791c-5.403,-0 -9.789,-4.387 -9.789,-9.791c0,-5.403 4.386,-9.79 9.789,-9.79c5.402,-0 9.788,4.387 9.788,9.79Z" style="fill:#231f20;"/><path d="M78.694,199.565c-0,4.177 -0,4.438 7.124,4.438c14.553,-0 21.232,-6.27 21.232,-18.673c0,-10.316 -7.569,-19.326 -20.488,-19.326c-7.721,-0 -7.868,0.392 -7.868,6.4l-0,27.161Zm-17.223,-18.804c0,-12.537 -0.15,-14.104 -7.127,-14.757l-3.859,-0.392c-1.038,-0.915 -1.038,-3.005 0.148,-3.658c9.354,-0.78 21.975,-1.172 34.147,-1.172c11.582,-0 21.677,1.306 28.209,4.438c7.573,3.527 13.066,9.663 13.066,19.065c-0,12.014 -10.541,18.02 -17.816,20.632c-0.891,0.392 -0.593,1.437 0,2.221c11.877,17.625 19.3,28.728 26.28,33.819c4.156,3.135 8.46,3.916 10.242,4.046c0.744,0.526 0.744,1.96 0.298,2.616c-1.781,0.389 -4.602,0.781 -9.8,0.781c-14.252,-0 -21.972,-5.088 -31.029,-17.237c-4.009,-5.483 -8.166,-12.667 -11.73,-17.755c-2.673,-3.919 -4.304,-4.441 -9.204,-4.441c-4.455,-0 -4.602,0.13 -4.602,2.87l-0,16.714c-0,13.843 1.336,14.235 8.313,15.022l3.269,0.389c1.039,0.911 0.888,3.262 -0.298,3.788c-6.535,-0.262 -13.217,-0.392 -19.748,-0.392c-6.531,-0 -13.213,0.13 -20.043,0.392c-1.189,-0.526 -1.634,-2.877 -0.298,-3.788l3.266,-0.389c6.98,-0.787 8.316,-1.179 8.316,-15.022l0,-47.79Z" style="fill:#114984;fill-rule:nonzero;"/><path d="M170.742,172.142c0,-5.483 -0.147,-5.745 -4.009,-5.745l-8.313,0c-13.659,0 -17.668,1.434 -23.161,12.011c-1.039,0.784 -4.157,0.392 -4.75,-0.911c2.522,-7.054 4.75,-15.149 5.788,-19.721c0.298,-0.389 0.891,-0.519 1.635,-0.519c0.592,-0 1.189,0.13 1.483,0.519c0.744,3.266 2.821,3.396 12.919,3.396l60.574,0c7.275,0 9.503,-0.392 11.285,-3.396c0.592,-0.258 1.185,-0.519 1.781,-0.519c0.891,-0 1.635,0.261 1.93,0.65c-1.484,5.355 -2.673,16.586 -2.228,20.763c-0.74,1.045 -3.265,1.306 -4.602,0.391c-1.929,-10.185 -4.753,-12.664 -20.636,-12.664l-8.464,0c-3.858,0 -4.009,0.262 -4.009,5.745l0,56.411c0,13.843 1.337,14.235 8.317,14.888l5.342,0.519c1.038,0.914 0.891,3.266 -0.298,3.788c-8.608,-0.261 -15.29,-0.392 -21.821,-0.392c-6.535,0 -13.512,0.131 -23.014,0.392c-1.189,-0.522 -1.337,-3.135 -0.298,-3.788l6.236,-0.65c6.977,-0.522 8.313,-0.914 8.313,-14.757l0,-56.411Z" style="fill:#114984;fill-rule:nonzero;"/><path d="M312.085,233.775c0,4.569 0.744,7.965 3.564,9.141c0.446,0.526 0.446,1.564 -0.147,1.956c-1.635,-0 -4.308,0.395 -7.128,1.048c-9.204,1.829 -20.341,3.527 -28.805,3.527c-17.815,0 -34.593,-4.18 -45.726,-14.365c-8.762,-7.965 -13.066,-18.935 -13.066,-29.904c-0,-10.969 4.304,-22.2 13.659,-30.687c10.54,-9.794 26.725,-15.408 47.364,-15.408c6.977,0 14.546,1.045 19.745,1.96c3.416,0.649 7.72,1.175 9.502,1.175c0.147,3.916 1.186,10.574 1.929,20.76c-0.743,1.306 -4.009,1.437 -4.749,0.265c-3.266,-12.668 -13.81,-18.938 -28.507,-18.938c-26.132,-0 -38.75,16.586 -38.75,38.786c0,10.444 2.67,21.674 10.688,30.034c8.019,8.354 19.896,11.097 28.655,11.097c7.127,0 11.431,-1.042 13.213,-3.004c0.891,-1.173 1.337,-3.524 1.337,-8.223l-0,-4.706c-0,-9.268 -0.148,-10.055 -10.096,-11.485l-5.345,-0.787c-1.039,-0.915 -1.039,-3.132 0.147,-3.789c5.791,0.265 12.919,0.396 23.165,0.396c6.679,-0 11.726,-0.131 18.11,-0.396c1.487,0.657 1.635,2.874 0.298,3.789l-2.673,0.392c-5.493,0.653 -6.384,1.825 -6.384,9.793l0,7.573Z" style="fill:#114984;fill-rule:nonzero;"/><path d="M445.411,233.775c0,4.569 0.741,7.965 3.561,9.141c0.445,0.526 0.445,1.564 -0.144,1.956c-1.638,-0 -4.308,0.395 -7.128,1.048c-9.207,1.829 -20.344,3.527 -28.805,3.527c-17.815,0 -34.593,-4.18 -45.726,-14.365c-8.762,-7.965 -13.066,-18.935 -13.066,-29.904c-0,-10.969 4.304,-22.2 13.659,-30.687c10.54,-9.794 26.721,-15.408 47.361,-15.408c6.98,0 14.55,1.045 19.748,1.96c3.413,0.649 7.717,1.175 9.499,1.175c0.15,3.916 1.189,10.574 1.932,20.76c-0.743,1.306 -4.012,1.437 -4.749,0.265c-3.269,-12.668 -13.81,-18.938 -28.51,-18.938c-26.129,-0 -38.75,16.586 -38.75,38.786c0,10.444 2.673,21.674 10.688,30.034c8.022,8.354 19.896,11.097 28.658,11.097c7.127,0 11.431,-1.042 13.213,-3.004c0.891,-1.173 1.333,-3.524 1.333,-8.223l0,-4.706c0,-9.268 -0.147,-10.055 -10.091,-11.485l-5.346,-0.787c-1.042,-0.915 -1.042,-3.132 0.147,-3.789c5.791,0.265 12.916,0.396 23.162,0.396c6.678,-0 11.729,-0.131 18.113,-0.396c1.487,0.657 1.635,2.874 0.295,3.789l-2.67,0.392c-5.493,0.653 -6.384,1.825 -6.384,9.793l0,7.573Z" style="fill:#114984;fill-rule:nonzero;"/><path d="M492.771,243.961c10.246,0 13.214,-10.705 13.214,-20.76c-0,-10.972 -4.308,-23.898 -15.29,-23.898c-7.573,0 -13.512,6.79 -13.512,21.283c0,11.883 4.9,23.375 15.588,23.375m30.735,-22.98c-0,18.542 -14.848,28.205 -32.517,28.205c-17.075,0 -31.327,-9.532 -31.327,-26.641c0,-17.497 15.146,-28.467 32.516,-28.467c16.778,0 31.328,9.925 31.328,26.903" style="fill:#114984;fill-rule:nonzero;"/><path d="M535.231,175.798c-0,-8.748 -0.148,-9.663 -3.859,-11.622l-1.634,-0.914c-0.891,-0.523 -1.035,-2.61 -0,-3.005c5.791,-1.433 13.515,-4.177 19.45,-6.267c0.894,-0.13 1.782,0.392 2.077,1.045c-0.295,5.222 -0.446,13.321 -0.446,18.935l0,57.848c0,9.659 0.596,11.1 5.647,11.753l3.263,0.392c1.041,0.911 0.89,3.262 -0.295,3.784c-6.089,-0.261 -11.137,-0.391 -16.627,-0.391c-4.9,-0 -9.951,0.13 -16.037,0.391c-1.189,-0.522 -1.34,-2.873 -0.298,-3.784l3.118,-0.392c5.048,-0.653 5.641,-2.094 5.641,-11.753l-0,-56.02Z" style="fill:#114984;fill-rule:nonzero;"/><path d="M590.758,202.044c-3.115,0 -3.115,0.261 -3.115,4.05l-0,25.723c-0,9.66 0.593,11.1 5.791,11.623l5.788,0.522c1.042,0.911 0.891,3.263 -0.298,3.788c-6.682,-0.264 -12.47,-0.395 -19.447,-0.395c-4.9,0 -9.948,0.131 -16.037,0.395c-1.186,-0.525 -1.336,-2.877 -0.295,-3.788l3.263,-0.392c5.051,-0.653 5.647,-2.093 5.647,-11.753l-0,-25.854c-0,-3.527 -0.151,-3.919 -2.676,-3.919l-5.346,0c-1.186,-0.522 -1.484,-2.217 -0.442,-3.001l6.384,-2.874c1.038,-0.522 2.08,-1.306 2.08,-2.873l-0,-2.348c-0,-5.617 0.593,-12.015 3.115,-18.677c3.858,-10.316 13.809,-18.281 27.763,-18.281c10.243,0 16.925,4.049 16.925,9.532c-0,3.658 -3.711,6.271 -7.272,6.271c-2.227,-0 -3.416,-0.784 -4.311,-1.829c-4.746,-6.009 -8.011,-8.622 -11.579,-8.622c-5.044,0 -9.053,8.883 -9.053,28.467l-0,3.919c-0,3.919 0.147,4.18 3.266,4.18l15.588,0c0.596,0.392 0.891,1.176 0.891,2.087c-0,2.22 -0.891,3.396 -2.077,4.049l-14.553,0Z" style="fill:#114984;fill-rule:nonzero;"/><path d="M687.303,277.19c12.282,0 22.568,3.179 26.041,7.56c0,-0.104 0.061,-0.191 0.061,-0.285c-0,-7.493 -11.907,-13.558 -26.588,-13.558c-14.67,-0 -26.564,6.065 -26.564,13.558c-0,0.422 0.157,0.834 0.241,1.233c2.633,-4.854 13.609,-8.508 26.809,-8.508" style="fill:#205026;fill-rule:nonzero;"/><path d="M686.818,298.003c14.49,0 26.213,-5.915 26.528,-13.254c-3.474,-4.381 -13.76,-7.559 -26.042,-7.559c-13.203,-0 -24.176,3.654 -26.809,8.507c1.263,6.917 12.494,12.306 26.323,12.306" style="fill:#298440;fill-rule:nonzero;"/><path d="M686.455,92.272c0,0 26.451,-15.561 32.681,4.666c6.216,20.224 38.896,24.886 38.896,24.886c0,0 -13.712,26.213 -42.423,2.14c-24.806,-20.803 -29.154,-2.14 -29.154,-2.14l0,-29.552Z" style="fill:#f15722;fill-rule:nonzero;"/><path d="M684.899,91.382l0,30.442l3.071,0.353c0,0 1.303,-5.669 6.866,-6.411c4.171,-0.556 10.382,1.515 19.773,9.391c12.032,10.087 21.597,11.61 28.687,9.969c10.839,-2.509 16.115,-12.581 16.115,-12.581l1.02,-1.95l-2.179,-0.311c0,-0 -11.498,-1.642 -22.01,-7.223c-6.814,-3.619 -13.256,-8.891 -15.619,-16.58c-1.379,-4.476 -3.685,-7.344 -6.44,-9.106c-4.063,-2.599 -9.182,-2.774 -14.006,-1.885c-7.658,1.411 -14.511,5.441 -14.511,5.441l-0.767,0.451Zm70.585,31.568c-4.027,-0.797 -12.642,-2.861 -20.701,-7.141c-7.525,-3.996 -14.525,-9.924 -17.134,-18.413c-1.114,-3.616 -2.917,-5.976 -5.143,-7.4c-3.408,-2.18 -7.719,-2.192 -11.765,-1.446c-5.652,1.041 -10.831,3.618 -12.73,4.638l0,22.775c1.445,-1.536 3.51,-2.894 6.414,-3.281c4.643,-0.619 11.728,1.322 22.183,10.09c10.938,9.171 19.541,10.814 25.986,9.323c6.715,-1.555 10.981,-6.439 12.89,-9.145Z" style="fill:#231f20;"/><path d="M682.722,90.696l0,195.281l7.466,0l0,-195.281l-7.466,-0Z" style="fill:#231f20;"/></g></g></svg>