<?xml version="1.0" encoding="UTF-8" standalone="no"?><!DOCTYPE svg PUBLIC "-//W3C//DTD SVG 1.1//EN" "http://www.w3.org/Graphics/SVG/1.1/DTD/svg11.dtd"><svg width="100%" height="100%" viewBox="0 0 292 250" version="1.1" xmlns="http://www.w3.org/2000/svg" xmlns:xlink="http://www.w3.org/1999/xlink" xml:space="preserve" xmlns:serif="http://www.serif.com/" style="fill-rule:evenodd;clip-rule:evenodd;stroke-linejoin:round;stroke-miterlimit:2;"><rect id="on-the-green" x="-0" y="0" width="291.667" height="250" style="fill:none;"/><g><path d="M65.146,150.432c0,0 138.084,-6.327 172.288,2.332c13.126,3.319 12.396,6.652 15.317,8.313c2.914,1.654 13.739,2.827 20.19,4.213c6.146,1.32 10.665,6.585 7.021,8.237c-3.638,1.661 -10.668,1.728 -15.773,2.555c-5.101,0.831 -11.562,1.394 -17.209,5.359c-4.843,3.393 -8.31,7.108 -1.752,10.424c6.572,3.326 22.153,4.853 22.153,9.84c0,4.984 -2.458,5.115 -10.48,6.78c-8.022,1.654 -21.875,3.312 -33.548,3.312c-11.669,0 -56.247,10.896 -71.292,7.359c-18.861,-4.442 -37.36,-4.033 -52.667,-4.87c-15.317,-0.824 -25.08,-6.635 -33.829,-7.463c-8.752,-0.824 -33.266,-3.332 -43.472,-8.313c-10.202,-4.984 -4.374,-12.467 -4.374,-12.467c-0,0 11.662,-0.82 16.774,-2.485c5.107,-1.654 5.831,-6.645 2.19,-8.303c-3.647,-1.665 -26.993,-4.78 -26.266,-10.594c0.727,-5.808 40.876,-13.405 54.729,-14.229" style="fill:#87a187;fill-rule:nonzero;"/><path d="M109.86,198.057c-0,6.052 -4.9,10.962 -10.963,10.962c-6.052,0 -10.959,-4.91 -10.959,-10.962c-0,-6.059 4.907,-10.963 10.959,-10.963c6.063,0 10.963,4.904 10.963,10.963" style="fill:#fff;fill-rule:nonzero;"/><path d="M111.032,198.057c0,-6.698 -5.437,-12.135 -12.133,-12.135c-6.697,-0 -12.133,5.437 -12.133,12.135c-0,6.697 5.436,12.135 12.133,12.135c6.696,-0 12.133,-5.438 12.133,-12.135Zm-2.344,-0c-0,5.403 -4.387,9.79 -9.789,9.79c-5.403,0 -9.789,-4.387 -9.789,-9.79c0,-5.404 4.386,-9.791 9.789,-9.791c5.402,0 9.789,4.387 9.789,9.791Z" style="fill:#231f20;"/><path d="M135.236,210.686c12.282,-0 22.568,3.178 26.041,7.559c0,-0.103 0.061,-0.19 0.061,-0.284c-0,-7.493 -11.907,-13.559 -26.588,-13.559c-14.67,0 -26.564,6.066 -26.564,13.559c-0,0.422 0.157,0.834 0.241,1.232c2.633,-4.853 13.609,-8.507 26.809,-8.507" style="fill:#205026;fill-rule:nonzero;"/><path d="M134.751,231.499c14.49,-0 26.213,-5.915 26.528,-13.254c-3.474,-4.381 -13.76,-7.56 -26.042,-7.56c-13.203,0 -24.176,3.655 -26.809,8.508c1.263,6.917 12.494,12.306 26.323,12.306" style="fill:#298440;fill-rule:nonzero;"/><path d="M134.388,25.768c0,-0 26.451,-15.561 32.681,4.666c6.216,20.223 38.896,24.886 38.896,24.886c0,-0 -13.712,26.212 -42.423,2.14c-24.806,-20.803 -29.154,-2.14 -29.154,-2.14l0,-29.552Z" style="fill:#f15722;fill-rule:nonzero;"/><path d="M132.833,24.878l-0,30.442l3.071,0.353c-0,-0 1.303,-5.669 6.865,-6.411c4.171,-0.556 10.383,1.515 19.773,9.39c12.032,10.088 21.597,11.611 28.687,9.97c10.84,-2.509 16.115,-12.581 16.115,-12.581l1.02,-1.95l-2.179,-0.311c0,-0 -11.498,-1.642 -22.009,-7.224c-6.815,-3.619 -13.257,-8.891 -15.62,-16.579c-1.379,-4.476 -3.685,-7.344 -6.44,-9.106c-4.063,-2.6 -9.182,-2.774 -14.006,-1.885c-7.658,1.411 -14.511,5.441 -14.511,5.441l-0.766,0.451Zm70.585,31.568c-4.028,-0.797 -12.642,-2.862 -20.702,-7.142c-7.525,-3.996 -14.525,-9.923 -17.134,-18.412c-1.114,-3.616 -2.917,-5.976 -5.143,-7.4c-3.408,-2.18 -7.719,-2.192 -11.765,-1.446c-5.652,1.041 -10.831,3.617 -12.73,4.638l0,22.774c1.445,-1.536 3.51,-2.893 6.414,-3.28c4.643,-0.62 11.729,1.322 22.183,10.09c10.938,9.17 19.541,10.814 25.986,9.322c6.716,-1.554 10.981,-6.438 12.891,-9.144Z" style="fill:#231f20;"/><path d="M130.655,24.191l0,195.282l7.466,-0l0,-195.282l-7.466,0Z" style="fill:#231f20;"/></g></svg>