<?xml version="1.0" encoding="UTF-8" standalone="no"?><!DOCTYPE svg PUBLIC "-//W3C//DTD SVG 1.1//EN" "http://www.w3.org/Graphics/SVG/1.1/DTD/svg11.dtd"><svg width="100%" height="100%" viewBox="0 0 500 500" version="1.1" xmlns="http://www.w3.org/2000/svg" xmlns:xlink="http://www.w3.org/1999/xlink" xml:space="preserve" xmlns:serif="http://www.serif.com/" style="fill-rule:evenodd;clip-rule:evenodd;stroke-linejoin:round;stroke-miterlimit:2;"><rect id="services" x="-2500" y="0" width="3000" height="500" style="fill:none;"/><path d="M143.124,315.586l-36.821,0c-5.05,0 -9.205,4.156 -9.205,9.206l-0,36.821c-0,5.05 4.155,9.205 9.205,9.205l36.821,0c5.05,0 9.205,-4.155 9.205,-9.205l0,-36.821c0,-5.05 -4.155,-9.206 -9.205,-9.206Zm0,-184.105l-36.821,-0c-5.05,-0 -9.205,4.155 -9.205,9.205l-0,36.821c-0,5.05 4.155,9.205 9.205,9.205l36.821,0c5.05,0 9.205,-4.155 9.205,-9.205l0,-36.821c0,-5.05 -4.155,-9.205 -9.205,-9.205Zm0,92.053l-36.821,-0c-5.05,-0 -9.205,4.155 -9.205,9.205l-0,36.821c-0,5.05 4.155,9.205 9.205,9.205l36.821,0c5.05,0 9.205,-4.155 9.205,-9.205l0,-36.821c0,-5.05 -4.155,-9.205 -9.205,-9.205Zm239.337,101.258l-184.105,-0c-5.05,-0 -9.206,4.155 -9.206,9.205l0,18.411c0,5.049 4.156,9.205 9.206,9.205l184.105,-0c5.05,-0 9.206,-4.156 9.206,-9.205l-0,-18.411c-0,-5.05 -4.156,-9.205 -9.206,-9.205Zm0,-184.106l-184.105,0c-5.05,0 -9.206,4.155 -9.206,9.205l0,18.411c0,5.05 4.156,9.205 9.206,9.205l184.105,0c5.05,0 9.206,-4.155 9.206,-9.205l-0,-18.411c-0,-5.05 -4.156,-9.205 -9.206,-9.205Zm0,92.053l-184.105,-0c-5.05,-0 -9.206,4.155 -9.206,9.205l0,18.411c0,5.05 4.156,9.205 9.206,9.205l184.105,0c5.05,0 9.206,-4.155 9.206,-9.205l-0,-18.411c-0,-5.05 -4.156,-9.205 -9.206,-9.205Z" style="fill-rule:nonzero;"/></svg>