<?xml version="1.0" encoding="UTF-8" standalone="no"?><!DOCTYPE svg PUBLIC "-//W3C//DTD SVG 1.1//EN" "http://www.w3.org/Graphics/SVG/1.1/DTD/svg11.dtd"><svg width="100%" height="100%" viewBox="0 0 500 500" version="1.1" xmlns="http://www.w3.org/2000/svg" xmlns:xlink="http://www.w3.org/1999/xlink" xml:space="preserve" xmlns:serif="http://www.serif.com/" style="fill-rule:evenodd;clip-rule:evenodd;stroke-linejoin:round;stroke-miterlimit:2;"><rect id="services" x="-500" y="0" width="3000" height="500" style="fill:none;"/><path d="M247.715,192.623c-30.504,0 -55.232,28.847 -55.232,64.437c0,35.584 24.728,64.437 55.232,64.437c30.492,0 55.231,-28.841 55.231,-64.437c0,-35.59 -24.727,-64.437 -55.231,-64.437Zm23.013,96.656c0,2.542 -2.06,4.602 -4.603,4.602l-36.821,0c-2.543,0 -4.602,-2.06 -4.602,-4.602l-0,-9.206c-0,-2.543 2.059,-4.602 4.602,-4.602l9.206,-0l-0,-31.897l-0.271,0.179c-0.756,0.504 -1.644,0.773 -2.552,0.773c-1.538,0 -2.977,-0.771 -3.828,-2.051l-5.109,-7.657c-0.505,-0.756 -0.774,-1.644 -0.774,-2.553c0,-1.537 0.771,-2.976 2.051,-3.828l8.82,-5.88c2.267,-1.511 4.932,-2.318 7.657,-2.318l7.813,-0c2.543,-0 4.603,2.06 4.603,4.603l0,50.629l9.205,-0c2.543,-0 4.603,2.059 4.603,4.602l0,9.206Zm142.682,-142.682l-331.39,-0c-10.166,-0 -18.411,8.244 -18.411,18.41l0,184.106c0,10.166 8.245,18.41 18.411,18.41l331.39,0c10.166,0 18.41,-8.244 18.41,-18.41l0,-184.106c0,-10.166 -8.244,-18.41 -18.41,-18.41Zm-9.205,156.489c-20.338,0 -36.822,16.484 -36.822,36.822l-239.337,-0c0,-20.338 -16.483,-36.822 -36.821,-36.822l-0,-92.052c20.338,-0 36.821,-16.484 36.821,-36.822l239.337,0c0,20.338 16.484,36.822 36.822,36.822l-0,92.052Z" style="fill:#849b0d;fill-rule:nonzero;"/></svg>