<?xml version="1.0" encoding="UTF-8" standalone="no"?><!DOCTYPE svg PUBLIC "-//W3C//DTD SVG 1.1//EN" "http://www.w3.org/Graphics/SVG/1.1/DTD/svg11.dtd"><svg width="100%" height="100%" viewBox="0 0 500 500" version="1.1" xmlns="http://www.w3.org/2000/svg" xmlns:xlink="http://www.w3.org/1999/xlink" xml:space="preserve" xmlns:serif="http://www.serif.com/" style="fill-rule:evenodd;clip-rule:evenodd;stroke-linejoin:round;stroke-miterlimit:2;"><rect id="services" x="-0" y="0" width="3000" height="500" style="fill:none;"/><path d="M323.943,131.917l-46.026,-0c-0,-20.309 -16.512,-36.821 -36.821,-36.821c-20.309,-0 -36.821,16.512 -36.821,36.821l-46.027,-0c-15.246,-0 -27.616,12.369 -27.616,27.616l0,202.516c0,15.246 12.37,27.616 27.616,27.616l165.695,-0c15.247,-0 27.616,-12.37 27.616,-27.616l0,-202.516c0,-15.247 -12.369,-27.616 -27.616,-27.616Zm-82.847,-13.808c7.652,-0 13.808,6.156 13.808,13.808c-0,7.652 -6.156,13.808 -13.808,13.808c-7.652,-0 -13.808,-6.156 -13.808,-13.808c-0,-7.652 6.156,-13.808 13.808,-13.808Zm82.847,240.488c0,1.898 -1.553,3.452 -3.452,3.452l-158.791,-0c-1.898,-0 -3.452,-1.554 -3.452,-3.452l0,-195.612c0,-1.899 1.554,-3.452 3.452,-3.452l24.164,-0l0,20.712c0,3.797 3.107,6.903 6.904,6.903l96.655,0c3.798,0 6.904,-3.106 6.904,-6.903l0,-20.712l24.164,-0c1.899,-0 3.452,1.553 3.452,3.452l0,195.612Z" style="fill-rule:nonzero;"/></svg>