<?xml version="1.0" encoding="UTF-8" standalone="no"?><!DOCTYPE svg PUBLIC "-//W3C//DTD SVG 1.1//EN" "http://www.w3.org/Graphics/SVG/1.1/DTD/svg11.dtd"><svg width="100%" height="100%" viewBox="0 0 500 500" version="1.1" xmlns="http://www.w3.org/2000/svg" xmlns:xlink="http://www.w3.org/1999/xlink" xml:space="preserve" xmlns:serif="http://www.serif.com/" style="fill-rule:evenodd;clip-rule:evenodd;stroke-linejoin:round;stroke-miterlimit:2;"><rect id="services" x="-1000" y="0" width="3000" height="500" style="fill:none;"/><path d="M386.974,114.378l-276.158,0c-15.246,0 -27.616,12.37 -27.616,27.616l0,184.106c0,15.246 12.37,27.616 27.616,27.616l110.463,-0l-9.205,27.615l-41.424,0c-7.652,0 -13.808,6.156 -13.808,13.808c0,7.652 6.156,13.808 13.808,13.808l156.49,0c7.652,0 13.808,-6.156 13.808,-13.808c-0,-7.652 -6.156,-13.808 -13.808,-13.808l-41.424,0l-9.205,-27.615l110.463,-0c15.247,-0 27.616,-12.37 27.616,-27.616l0,-184.106c0,-15.246 -12.369,-27.616 -27.616,-27.616Zm-9.205,202.516l-257.748,0l0,-165.695l257.748,0l0,165.695Z" style="fill:#849b0d;fill-rule:nonzero;"/></svg>