<?xml version="1.0" encoding="UTF-8" standalone="no"?><!DOCTYPE svg PUBLIC "-//W3C//DTD SVG 1.1//EN" "http://www.w3.org/Graphics/SVG/1.1/DTD/svg11.dtd"><svg width="100%" height="100%" viewBox="0 0 500 500" version="1.1" xmlns="http://www.w3.org/2000/svg" xmlns:xlink="http://www.w3.org/1999/xlink" xml:space="preserve" xmlns:serif="http://www.serif.com/" style="fill-rule:evenodd;clip-rule:evenodd;stroke-linejoin:round;stroke-miterlimit:2;"><rect id="services" x="-2000" y="0" width="3000" height="500" style="fill:none;"/><path d="M344.532,99.262l-202.517,0c-15.246,0 -27.615,12.37 -27.615,27.616l-0,239.338c-0,15.246 12.369,27.615 27.615,27.615l202.517,0c15.246,0 27.615,-12.369 27.615,-27.615l0,-239.338c0,-15.246 -12.369,-27.616 -27.615,-27.616Zm-101.259,276.159c-10.183,-0 -18.41,-8.227 -18.41,-18.411c-0,-10.183 8.227,-18.41 18.41,-18.41c10.184,-0 18.411,8.227 18.411,18.41c0,10.184 -8.227,18.411 -18.411,18.411Zm101.259,-62.136c-0,3.797 -3.107,6.904 -6.904,6.904l-188.709,0c-3.797,0 -6.904,-3.107 -6.904,-6.904l0,-179.503c0,-3.797 3.107,-6.904 6.904,-6.904l188.709,0c3.797,0 6.904,3.107 6.904,6.904l-0,179.503Z" style="fill:#849b0d;fill-rule:nonzero;"/></svg>