<?xml version="1.0" encoding="UTF-8" standalone="no"?><!DOCTYPE svg PUBLIC "-//W3C//DTD SVG 1.1//EN" "http://www.w3.org/Graphics/SVG/1.1/DTD/svg11.dtd"><svg width="100%" height="100%" viewBox="0 0 500 500" version="1.1" xmlns="http://www.w3.org/2000/svg" xmlns:xlink="http://www.w3.org/1999/xlink" xml:space="preserve" xmlns:serif="http://www.serif.com/" style="fill-rule:evenodd;clip-rule:evenodd;stroke-linejoin:round;stroke-miterlimit:2;"><rect id="services" x="-1500" y="0" width="3000" height="500" style="fill:none;"/><path d="M365.321,123.147l-239.337,0c-15.252,0 -27.616,12.364 -27.616,27.616l0,202.517c0,15.252 12.364,27.615 27.616,27.615l239.337,0c15.252,0 27.616,-12.363 27.616,-27.615l0,-202.517c0,-15.252 -12.364,-27.616 -27.616,-27.616Zm-3.452,230.133l-232.433,-0c-1.894,-0 -3.452,-1.559 -3.452,-3.452l-0,-195.613c-0,-1.893 1.558,-3.452 3.452,-3.452l232.433,0c1.894,0 3.452,1.559 3.452,3.452l0,195.613c0,1.893 -1.558,3.452 -3.452,3.452Zm-24.164,-52.931l0,13.808c0,3.813 -3.091,6.904 -6.904,6.904l-115.066,0c-3.812,0 -6.904,-3.091 -6.904,-6.904l0,-13.808c0,-3.813 3.092,-6.904 6.904,-6.904l115.066,0c3.813,0 6.904,3.091 6.904,6.904Zm0,-55.232l0,13.808c0,3.813 -3.091,6.904 -6.904,6.904l-115.066,0c-3.812,0 -6.904,-3.091 -6.904,-6.904l0,-13.808c0,-3.812 3.092,-6.904 6.904,-6.904l115.066,0c3.813,0 6.904,3.092 6.904,6.904Zm0,-55.231l0,13.808c0,3.812 -3.091,6.904 -6.904,6.904l-115.066,-0c-3.812,-0 -6.904,-3.092 -6.904,-6.904l0,-13.808c0,-3.813 3.092,-6.904 6.904,-6.904l115.066,-0c3.813,-0 6.904,3.091 6.904,6.904Zm-144.983,6.904c0,11.438 -9.273,20.712 -20.712,20.712c-11.438,-0 -20.712,-9.274 -20.712,-20.712c0,-11.439 9.274,-20.712 20.712,-20.712c11.439,-0 20.712,9.273 20.712,20.712Zm0,55.231c0,11.439 -9.273,20.712 -20.712,20.712c-11.438,0 -20.712,-9.273 -20.712,-20.712c0,-11.438 9.274,-20.711 20.712,-20.711c11.439,-0 20.712,9.273 20.712,20.711Zm0,55.232c0,11.439 -9.273,20.712 -20.712,20.712c-11.438,-0 -20.712,-9.273 -20.712,-20.712c0,-11.439 9.274,-20.712 20.712,-20.712c11.439,0 20.712,9.273 20.712,20.712Z" style="fill-rule:nonzero;"/></svg>