<?xml version="1.0" encoding="UTF-8" standalone="no"?><!DOCTYPE svg PUBLIC "-//W3C//DTD SVG 1.1//EN" "http://www.w3.org/Graphics/SVG/1.1/DTD/svg11.dtd"><svg width="100%" height="100%" viewBox="0 0 500 167" version="1.1" xmlns="http://www.w3.org/2000/svg" xmlns:xlink="http://www.w3.org/1999/xlink" xml:space="preserve" xmlns:serif="http://www.serif.com/" style="fill-rule:evenodd;clip-rule:evenodd;stroke-linejoin:round;stroke-miterlimit:2;"><rect id="social" x="0" y="0" width="500" height="166.667" style="fill:none;"/><clipPath id="_clip1"><rect x="0" y="0" width="500" height="166.667"/></clipPath><g clip-path="url(#_clip1)"><g id="twitter"><rect x="166.667" y="0" width="166.667" height="166.667" style="fill:none;fill-rule:nonzero;"/><path d="M217.451,103.785c5.911,3.79 12.93,6.001 20.471,6.001c24.798,-0 38.806,-20.945 37.963,-39.73c2.608,-1.881 4.874,-4.233 6.664,-6.913c-2.397,1.063 -4.97,1.78 -7.67,2.101c2.756,-1.649 4.874,-4.265 5.87,-7.388c-2.579,1.531 -5.439,2.644 -8.479,3.242c-2.437,-2.596 -5.906,-4.218 -9.75,-4.218c-8.62,0 -14.956,8.046 -13.008,16.401c-11.102,-0.557 -20.943,-5.875 -27.528,-13.956c-3.5,6.003 -1.816,13.859 4.133,17.833c-2.192,-0.069 -4.253,-0.672 -6.051,-1.673c-0.145,6.188 4.288,11.976 10.712,13.267c-1.883,0.513 -3.94,0.626 -6.028,0.227c1.694,5.31 6.627,9.168 12.474,9.275c-5.615,4.403 -12.686,6.367 -19.773,5.531Z" style="fill:#fff;fill-rule:nonzero;"/></g><g id="facebook"><rect x="0" y="0" width="166.667" height="166.667" style="fill:none;fill-rule:nonzero;"/><path d="M74.026,120.26l14.87,-0l-0,-37.24l10.374,-0l1.107,-12.469l-11.481,0l-0,-7.101c-0,-2.941 0.59,-4.104 3.432,-4.104l8.049,0l0,-12.939l-10.297,-0c-11.065,-0 -16.054,4.873 -16.054,14.203l0,9.941l-7.736,0l0,12.626l7.736,-0l0,37.083Z" style="fill:#fff;fill-rule:nonzero;"/></g><g id="instagram"><rect x="333.333" y="0" width="166.667" height="166.665" style="fill:none;fill-rule:nonzero;"/><path d="M416.668,49.836c-9.098,0 -10.238,0.039 -13.81,0.202c-3.565,0.163 -6.001,0.729 -8.132,1.556c-2.202,0.855 -4.071,2.003 -5.932,3.865c-1.862,1.863 -3.008,3.73 -3.865,5.932c-0.826,2.132 -1.394,4.567 -1.556,8.13c-0.165,3.574 -0.203,4.714 -0.203,13.813c-0,9.096 0.038,10.236 0.203,13.81c0.162,3.563 0.73,6 1.556,8.13c0.857,2.204 2.003,4.071 3.865,5.932c1.861,1.862 3.73,3.008 5.932,3.863c2.131,0.829 4.567,1.395 8.132,1.558c3.572,0.163 4.712,0.202 13.81,0.202c9.097,-0 10.237,-0.039 13.811,-0.202c3.565,-0.163 5.998,-0.729 8.13,-1.558c2.204,-0.855 4.071,-2.001 5.934,-3.863c1.86,-1.861 3.006,-3.728 3.861,-5.932c0.829,-2.13 1.395,-4.567 1.558,-8.13c0.163,-3.574 0.202,-4.714 0.202,-13.81c-0,-9.099 -0.039,-10.239 -0.202,-13.813c-0.163,-3.563 -0.729,-5.998 -1.558,-8.13c-0.855,-2.202 -2.001,-4.069 -3.861,-5.932c-1.863,-1.862 -3.73,-3.01 -5.934,-3.865c-2.132,-0.827 -4.565,-1.393 -8.13,-1.556c-3.574,-0.163 -4.714,-0.202 -13.811,-0.202Zm-0,6.035c8.943,0 10.003,0.034 13.535,0.195c3.266,0.15 5.039,0.695 6.22,1.155c1.563,0.607 2.678,1.334 3.851,2.505c1.173,1.173 1.898,2.288 2.505,3.851c0.458,1.181 1.005,2.954 1.155,6.22c0.159,3.532 0.195,4.592 0.195,13.537c-0,8.942 -0.036,10.002 -0.195,13.534c-0.15,3.266 -0.697,5.037 -1.155,6.22c-0.607,1.565 -1.332,2.68 -2.505,3.849c-1.173,1.173 -2.288,1.9 -3.851,2.507c-1.181,0.46 -2.954,1.005 -6.22,1.155c-3.532,0.159 -4.592,0.195 -13.535,0.195c-8.944,-0 -10.004,-0.036 -13.536,-0.195c-3.266,-0.15 -5.041,-0.695 -6.22,-1.155c-1.563,-0.607 -2.678,-1.334 -3.849,-2.507c-1.175,-1.169 -1.902,-2.284 -2.507,-3.849c-0.46,-1.183 -1.005,-2.954 -1.155,-6.22c-0.161,-3.532 -0.195,-4.592 -0.195,-13.534c0,-8.945 0.034,-10.005 0.195,-13.537c0.15,-3.266 0.695,-5.039 1.155,-6.22c0.605,-1.563 1.332,-2.678 2.507,-3.851c1.171,-1.171 2.286,-1.898 3.849,-2.505c1.179,-0.46 2.954,-1.005 6.22,-1.155c3.532,-0.161 4.592,-0.195 13.536,-0.195Z" style="fill:#fff;fill-rule:nonzero;"/><path d="M416.668,94.499c-6.167,0 -11.167,-5 -11.167,-11.165c-0,-6.168 5,-11.166 11.167,-11.166c6.167,-0 11.164,4.998 11.164,11.166c0,6.165 -4.997,11.165 -11.164,11.165Zm-0,-28.366c-9.501,-0 -17.202,7.699 -17.202,17.201c0,9.499 7.701,17.198 17.202,17.198c9.499,0 17.199,-7.699 17.199,-17.198c0,-9.502 -7.7,-17.201 -17.199,-17.201Z" style="fill:#fff;fill-rule:nonzero;"/><path d="M438.568,65.453c0,2.219 -1.8,4.019 -4.021,4.019c-2.217,0 -4.019,-1.8 -4.019,-4.019c-0,-2.221 1.802,-4.021 4.019,-4.021c2.221,-0 4.021,1.8 4.021,4.021Z" style="fill:#fff;fill-rule:nonzero;"/></g></g></svg>