<?xml version="1.0" encoding="UTF-8" standalone="no"?><!DOCTYPE svg PUBLIC "-//W3C//DTD SVG 1.1//EN" "http://www.w3.org/Graphics/SVG/1.1/DTD/svg11.dtd"><svg width="100%" height="100%" viewBox="0 0 134 125" version="1.1" xmlns="http://www.w3.org/2000/svg" xmlns:xlink="http://www.w3.org/1999/xlink" xml:space="preserve" xmlns:serif="http://www.serif.com/" style="fill-rule:evenodd;clip-rule:evenodd;stroke-linejoin:round;stroke-miterlimit:2;"><path d="M66.679,34.424c-15.527,-0 -28.052,12.524 -28.052,28.052c0,15.527 12.525,28.051 28.052,28.051c15.527,0 28.052,-12.524 28.052,-28.051c-0,-15.528 -12.525,-28.052 -28.052,-28.052Zm-0,46.289c-10.034,-0 -18.237,-8.179 -18.237,-18.237c-0,-10.059 8.178,-18.238 18.237,-18.238c10.058,0 18.237,8.179 18.237,18.238c0,10.058 -8.203,18.237 -18.237,18.237Zm35.742,-47.437c0,3.638 -2.93,6.543 -6.543,6.543c-3.638,0 -6.543,-2.929 -6.543,-6.543c0,-3.613 2.93,-6.543 6.543,-6.543c3.613,0 6.543,2.93 6.543,6.543Zm18.579,6.641c-0.415,-8.765 -2.417,-16.528 -8.838,-22.925c-6.396,-6.396 -14.16,-8.398 -22.925,-8.838c-9.033,-0.512 -36.108,-0.512 -45.141,0c-8.74,0.415 -16.504,2.417 -22.925,8.814c-6.421,6.396 -8.398,14.16 -8.838,22.925c-0.513,9.033 -0.513,36.108 0,45.141c0.415,8.765 2.417,16.529 8.838,22.925c6.421,6.396 14.16,8.398 22.925,8.838c9.033,0.513 36.108,0.513 45.141,-0c8.765,-0.415 16.529,-2.417 22.925,-8.838c6.397,-6.396 8.399,-14.16 8.838,-22.925c0.513,-9.033 0.513,-36.084 0,-45.117Zm-11.67,54.81c-1.904,4.785 -5.591,8.471 -10.4,10.4c-7.202,2.856 -24.292,2.197 -32.251,2.197c-7.959,0 -25.073,0.635 -32.251,-2.197c-4.785,-1.904 -8.472,-5.591 -10.4,-10.4c-2.857,-7.203 -2.198,-24.292 -2.198,-32.251c0,-7.959 -0.635,-25.074 2.198,-32.251c1.904,-4.786 5.59,-8.472 10.4,-10.401c7.202,-2.856 24.292,-2.197 32.251,-2.197c7.959,-0 25.073,-0.635 32.251,2.197c4.785,1.905 8.472,5.591 10.4,10.401c2.857,7.202 2.198,24.292 2.198,32.251c-0,7.959 0.659,25.073 -2.198,32.251Z" style="fill:#fff;fill-rule:nonzero;"/></svg>