<svg viewBox="0 0 834 417" xmlns="http://www.w3.org/2000/svg" fill-rule="evenodd" clip-rule="evenodd" stroke-linejoin="round" stroke-miterlimit="2"><path fill="none" d="M0 0h833.333v416.667H0z"/><clipPath id="a"><path d="M0 0h833.333v416.667H0z"/></clipPath><g clip-path="url(#a)"><path d="M57.083 294.284c0 1.079 0 1.739.171 1.976.174.185 1.035.302 3.959.302 2.07 0 4.247-.241 5.915-1.558 1.547-1.256 2.867-3.356 2.867-7.429 0-4.732-2.81-9.224-9.181-9.224-3.56 0-3.731.238-3.731 1.916v14.017zm-4.706-8.564c0-5.691-.174-6.712-2.526-7.007l-1.838-.241c-.402-.302-.402-1.26.06-1.498 3.212-.301 7.174-.479 12.798-.479 3.557 0 6.943.299 9.586 1.796 2.753 1.497 4.763 4.193 4.763 8.387 0 5.69-4.307 8.802-7.174 10.001-.289.358 0 .961.284 1.44 4.592 7.724 7.637 12.52 11.539 15.93.975.901 2.408 1.561 3.959 1.678.288.117.345.6.057.838-.516.184-1.434.301-2.526.301-4.876 0-7.804-1.497-11.88-7.55-1.494-2.214-3.845-6.343-5.624-9.04-.86-1.319-1.778-1.916-4.076-1.916-2.582 0-2.696.057-2.696 1.313v7.55c0 6.287.114 7.007 3.443 7.486l1.206.181c.345.298.231 1.316-.114 1.5-2.582-.123-4.535-.184-6.833-.184-2.408 0-4.475.061-7.174.184-.342-.184-.459-1.081-.114-1.5l1.433-.181c3.333-.419 3.447-1.199 3.447-7.486V285.72zm40.293 13.356c4.248 0 5.51-.238 5.969-.6.171-.117.345-.358.345-1.138 0-1.675-1.088-3.775-4.421-3.775-3.383 0-6.31 3.235-6.367 5.215 0 .117 0 .298.398.298h4.076zm-3.557 1.795c-1.493 0-1.55.121-1.55 1.621 0 6.046 3.386 11.201 9.525 11.201 1.896 0 3.504-.6 5.282-2.938.573-.177.975.181 1.035.72-1.895 4.073-6.029 5.571-9.013 5.571-3.731 0-6.659-1.678-8.323-3.953-1.722-2.338-2.408-5.151-2.408-7.787 0-7.369 4.649-13.539 11.535-13.539 4.937 0 8.149 3.537 8.149 7.128 0 .837-.114 1.32-.228 1.558-.174.361-.978.418-3.386.418H89.113zm51.598-.058c0-4.073-1.722-6.17-5.339-6.17-2.181 0-3.959 1.022-4.763 2.097-.69.901-.861 1.497-.861 3.594v9.167c0 4.311.114 4.911 2.18 5.205l1.206.185c.402.298.288 1.316-.114 1.497a74.296 74.296 0 00-5.396-.181c-2.066 0-3.614.06-5.221.181-.402-.181-.52-1.199-.114-1.497l1.031-.185c2.124-.355 2.181-.894 2.181-5.205v-8.688c0-4.013-1.722-6.17-5.282-6.17-2.352 0-3.959 1.079-4.82 2.157-.573.72-.861 1.498-.861 3.413v9.288c0 4.311.114 4.85 2.181 5.205l1.035.185c.402.298.284 1.316-.118 1.497a66.174 66.174 0 00-5.221-.181c-2.067 0-3.789.06-5.567.181-.402-.181-.516-1.199-.117-1.497l1.38-.185c2.123-.294 2.18-.894 2.18-5.205v-10.483c0-2.338 0-2.636-1.547-3.715l-.519-.358c-.232-.241-.232-.901.056-1.079 1.32-.479 4.592-2.036 5.741-2.937.231 0 .516.12.63.422-.114 1.376-.114 2.274-.114 2.817 0 .358.228.656.633.656 2.181-1.618 4.877-3.054 7.634-3.054 2.867 0 4.474 1.075 6.082 3.533.516.121.918-.12 1.434-.479 2.297-1.678 5.108-3.054 7.807-3.054 4.592 0 6.83 3.292 6.83 7.429v10.302c0 4.311.113 4.911 2.18 5.205l1.38.185c.399.298.285 1.316-.117 1.497a82.975 82.975 0 00-5.567-.181c-2.067 0-3.617.06-5.222.181-.402-.181-.519-1.199-.114-1.497l1.032-.185c2.124-.355 2.181-.894 2.181-5.205v-8.688zm19.46 13.538c1.149 0 2.927-.901 3.5-1.497.69-.72.69-1.557.747-2.817l.117-3.533c0-.66-.231-.777-.576-.777s-1.319.237-2.351.599c-3.39 1.196-5.051 2.093-5.051 4.431 0 1.019.687 3.594 3.614 3.594m3.557-10.54c.864-.302.978-.838.978-1.739l.057-2.756c.057-2.214-.63-5.212-4.19-5.212-1.608 0-3.557.841-3.674 2.696-.057.958-.114 1.678-.573 2.037-.861.72-2.412 1.139-3.273 1.139-.515 0-.803-.302-.803-.838 0-3.118 6.487-7.368 10.678-7.368 4.133 0 6.139 2.515 5.968 7.01l-.345 10.42c-.114 2.753.402 5.212 2.64 5.212.572 0 1.092-.181 1.437-.362.284-.181.572-.419.743-.419.231 0 .405.362.405.781 0 .294-2.013 2.636-4.823 2.636-1.376 0-2.756-.54-3.731-1.859-.231-.355-.573-.838-.918-.838-.402 0-1.092.54-2.241 1.196-1.262.72-2.522 1.501-4.129 1.501-1.665 0-3.042-.483-4.02-1.377-1.088-1.022-1.778-2.519-1.778-4.194 0-2.337 1.092-3.717 4.763-5.094l6.829-2.572zm15.499-4.794c0-2.338 0-2.636-1.547-3.711l-.519-.362c-.231-.241-.231-.897.057-1.078 1.319-.479 4.364-2.037 5.797-2.938.288.064.459.185.459.422v3.474c0 .298.057.482.171.539 2.01-1.738 4.19-3.594 6.317-3.594 1.434 0 2.583.958 2.583 2.398 0 1.977-1.551 2.754-2.469 2.754-.576 0-.864-.181-1.263-.419-.864-.603-1.721-.961-2.525-.961-.921 0-1.608.542-2.067 1.199-.576.84-.747 2.575-.747 4.612v8.149c0 4.311.114 5.031 2.298 5.208l2.063.181c.402.298.288 1.317-.114 1.501-2.696-.124-4.361-.184-6.37-.184-2.067 0-3.788.06-5.279.184-.402-.184-.519-1.203-.117-1.501l1.092-.181c2.123-.358 2.18-.897 2.18-5.208v-10.484zm18.425-16.593c0-3.534-.057-3.892-1.778-4.971l-.576-.362c-.285-.177-.285-1.018 0-1.195 1.437-.479 4.133-1.377 6.2-2.516.231 0 .458.121.572.359-.057 1.795-.171 4.793-.171 7.429v20.545c0 .777.057.898 1.035.898 1.263 0 2.352-.66 3.902-2.335l2.352-2.636c1.608-1.799 2.009-2.455 2.009-2.757 0-.298-.288-.479-1.262-.599l-1.377-.181c-.516-.177-.516-1.316 0-1.494h1.32c2.525 0 5.912-.12 9.127-.482.402.181.459 1.199.114 1.497l-1.839.358c-1.146.242-2.12.841-3.614 2.101-2.237 1.855-4.19 4.009-5.222 5.03-.69.657-.747.958-.402 1.437.975 1.377 1.893 2.516 3.845 4.79 2.238 2.639 4.247 4.974 5.393 6.113.807.777 1.953 1.138 2.984 1.316l.804.121c.402.298.345 1.316-.114 1.5a76.474 76.474 0 00-5.453-.184c-2.294 0-4.304.06-5.968.184-.459-.244-.516-1.259-.114-1.5l1.032-.181c.864-.118 1.436-.238 1.436-.597 0-.358-.231-.777-.978-1.678l-6.139-7.429c-.516-.599-1.149-.837-1.779-.837-1.035 0-1.092.178-1.092 2.037v3.295c0 4.311.114 4.911 2.181 5.209l1.38.181c.402.298.285 1.316-.117 1.5a80.929 80.929 0 00-5.567-.184c-2.067 0-3.788.06-5.51.184-.402-.184-.516-1.202-.057-1.5l1.263-.181c2.123-.298 2.18-.898 2.18-5.209v-27.076zm32.947 31.927c1.148 0 2.927-.901 3.5-1.497.69-.72.69-1.557.747-2.817l.117-3.533c0-.66-.231-.777-.576-.777s-1.32.237-2.351.599c-3.39 1.196-5.055 2.093-5.055 4.431 0 1.019.69 3.594 3.618 3.594m3.557-10.54c.864-.302.978-.838.978-1.739l.057-2.756c.057-2.214-.63-5.212-4.19-5.212-1.608 0-3.558.841-3.675 2.696-.057.958-.114 1.678-.573 2.037-.86.72-2.411 1.139-3.272 1.139-.516 0-.804-.302-.804-.838 0-3.118 6.488-7.368 10.678-7.368 4.133 0 6.14 2.515 5.969 7.01l-.345 10.42c-.114 2.753.402 5.212 2.639 5.212.573 0 1.092-.181 1.437-.362.285-.181.573-.419.744-.419.231 0 .405.362.405.781 0 .294-2.013 2.636-4.823 2.636-1.38 0-2.757-.54-3.731-1.859-.232-.355-.573-.838-.918-.838-.402 0-1.092.54-2.238 1.196-1.266.72-2.525 1.501-4.133 1.501-1.664 0-3.041-.483-4.019-1.377-1.089-1.022-1.779-2.519-1.779-4.194 0-2.337 1.092-3.717 4.763-5.094l6.83-2.572zm18.427 4.25c0 2.097.458 3.952 1.433 5.212.978 1.259 2.526 1.976 4.361 1.976 5.396 0 7.523-4.793 7.523-9.941 0-6.17-3.045-10.966-8.725-10.966-1.722 0-3.102.419-3.902.961-.577.419-.69 1.079-.69 3.413v9.345zm-4.248-25.636c0-3.534-.056-3.892-1.778-4.974l-.576-.359c-.285-.177-.285-1.018 0-1.199 1.32-.536 4.076-1.313 6.257-2.512.231 0 .458.121.572.359-.114 2.096-.227 4.793-.227 7.429v11.321c0 1.015.227 1.259.572 1.259 1.494-.904 3.789-1.979 6.602-1.979 6.541 0 10.963 5.151 10.963 11.739 0 7.968-5.51 13.539-13.2 13.539-2.124 0-3.732-.422-4.88-.781-1.206-.422-1.95-.777-2.412-.777-.459 0-.918.476-1.203.898-.06.06-.117.06-.231.06a.622.622 0 01-.572-.362c.057-.837.113-1.973.113-5.087v-28.574zm33.98 27.075c0 4.311.114 4.911 2.181 5.209l1.376.181c.406.298.289 1.316-.113 1.5a83.563 83.563 0 00-5.567-.184c-2.067 0-3.788.064-5.51.184-.402-.184-.516-1.202-.114-1.5l1.32-.181c2.123-.298 2.18-.898 2.18-5.209v-27.076c0-3.534-.057-3.892-1.778-4.971l-.576-.362c-.285-.177-.285-1.015 0-1.195 1.437-.479 4.133-1.377 6.199-2.516.232 0 .459.121.573.359-.057 1.795-.171 4.793-.171 7.429V309.5zm16.186-10.424c4.248 0 5.51-.238 5.969-.6.171-.117.345-.358.345-1.138 0-1.675-1.088-3.775-4.421-3.775-3.383 0-6.31 3.235-6.367 5.215 0 .117 0 .298.398.298h4.076zm-3.557 1.795c-1.493 0-1.55.121-1.55 1.621 0 6.046 3.386 11.201 9.525 11.201 1.896 0 3.504-.6 5.282-2.938.573-.177.975.181 1.035.72-1.895 4.073-6.029 5.571-9.013 5.571-3.731 0-6.659-1.678-8.323-3.953-1.722-2.338-2.408-5.151-2.408-7.787 0-7.369 4.649-13.539 11.535-13.539 4.937 0 8.149 3.537 8.149 7.128 0 .837-.114 1.32-.228 1.558-.174.361-.978.418-3.386.418h-10.618zm48.729 6.353c0 6.287.117 7.188 3.443 7.482l1.839.185c.345.237.231 1.316-.117 1.497-3.269-.121-5.222-.181-7.517-.181-2.297 0-4.304.06-7.978.181-.345-.181-.459-1.199 0-1.497l2.067-.185c3.269-.294 3.557-1.195 3.557-7.482v-26.776c0-1.858 0-1.915-1.722-1.915h-3.155c-2.468 0-5.627.117-7.061 1.497-1.376 1.313-1.952 2.636-2.582 4.133-.459.358-1.263.06-1.494-.422.918-2.693 1.782-6.528 2.181-8.926.174-.118.921-.178 1.092 0 .345 1.916 2.237 1.859 4.88 1.859h23.245c3.098 0 3.614-.118 4.475-1.675.288-.121.917-.064 1.035.177-.634 2.456-1.035 7.306-.861 9.104-.231.479-1.206.479-1.494.121-.171-1.497-.576-3.715-1.434-4.371-1.319-1.022-3.503-1.497-6.658-1.497h-4.077c-1.721 0-1.664.057-1.664 2.033v26.658zm15.213-8.207c0-2.338 0-2.636-1.548-3.711l-.519-.362c-.231-.241-.231-.897.057-1.078 1.32-.479 4.364-2.037 5.798-2.938.288.064.459.185.459.422v3.474c0 .298.057.482.171.539 2.009-1.738 4.19-3.594 6.317-3.594 1.433 0 2.582.958 2.582 2.398 0 1.977-1.551 2.754-2.468 2.754-.576 0-.865-.181-1.263-.419-.864-.603-1.722-.961-2.526-.961-.921 0-1.607.542-2.066 1.199-.576.84-.747 2.575-.747 4.612v8.149c0 4.311.114 5.031 2.298 5.208l2.063.181c.402.298.288 1.317-.114 1.501-2.696-.124-4.361-.184-6.371-.184-2.066 0-3.788.06-5.278.184-.402-.184-.519-1.203-.118-1.501l1.092-.181c2.124-.358 2.181-.897 2.181-5.208v-10.484zm23.761 15.334c1.149 0 2.928-.901 3.5-1.497.69-.72.69-1.557.747-2.817l.118-3.533c0-.66-.232-.777-.577-.777-.344 0-1.319.237-2.351.599-3.389 1.196-5.054 2.093-5.054 4.431 0 1.019.69 3.594 3.617 3.594m3.557-10.54c.865-.302.978-.838.978-1.739l.057-2.756c.057-2.214-.629-5.212-4.19-5.212-1.607 0-3.557.841-3.674 2.696-.057.958-.114 1.678-.573 2.037-.861.72-2.411 1.139-3.272 1.139-.516 0-.804-.302-.804-.838 0-3.118 6.488-7.368 10.678-7.368 4.133 0 6.139 2.515 5.969 7.01l-.345 10.42c-.114 2.753.401 5.212 2.639 5.212.573 0 1.092-.181 1.437-.362.285-.181.573-.419.743-.419.231 0 .406.362.406.781 0 .294-2.013 2.636-4.824 2.636-1.379 0-2.756-.54-3.731-1.859-.231-.355-.573-.838-.918-.838-.401 0-1.091.54-2.237 1.196-1.266.72-2.525 1.501-4.133 1.501-1.665 0-3.041-.483-4.019-1.377-1.089-1.022-1.779-2.519-1.779-4.194 0-2.337 1.092-3.717 4.763-5.094l6.829-2.572zm14.582-5.275c-.86-2.214-1.38-4.129-3.443-4.431l-1.149-.181c-.345-.479-.288-1.316.171-1.497 1.437.121 3.443.181 5.396.181 1.551 0 2.7-.06 4.649-.181.402.241.459 1.196.057 1.497l-.687.121c-1.781.298-1.838.599-1.262 2.398 1.319 4.13 2.984 8.323 4.304 11.438.516 1.199.747 1.739.917 1.916.232-.177.63-1.015 1.092-2.274l3.269-8.806c.804-2.097 1.035-3.353 1.035-3.714 0-.54-.345-.777-1.035-.898l-1.319-.181c-.342-.418-.285-1.256.114-1.497 1.778.121 3.215.181 4.304.181 1.436 0 2.411-.06 4.022-.181.399.241.456 1.139.111 1.497l-.858.121c-2.009.298-2.525 1.855-4.193 5.211-.801 1.615-4.361 10.303-5.279 12.755-.576 1.501-1.149 2.881-1.896 4.914-.113.181-.341.241-.572.241-.285 0-.573-.06-.747-.241-.459-1.675-1.32-4.01-2.181-6.227l-4.82-12.162zm31.051.54c4.251 0 5.513-.238 5.972-.6.171-.117.342-.358.342-1.138 0-1.675-1.085-3.775-4.418-3.775-3.386 0-6.31 3.235-6.371 5.215 0 .117 0 .298.399.298h4.076zm-3.557 1.795c-1.494 0-1.547.121-1.547 1.621 0 6.046 3.383 11.201 9.525 11.201 1.893 0 3.501-.6 5.279-2.938.576-.177.978.181 1.035.72-1.896 4.073-6.025 5.571-9.01 5.571-3.734 0-6.658-1.678-8.326-3.953-1.719-2.338-2.405-5.151-2.405-7.787 0-7.369 4.645-13.539 11.532-13.539 4.94 0 8.152 3.537 8.152 7.128 0 .837-.117 1.32-.231 1.558-.171.361-.975.418-3.386.418H428.28zm24.854 8.629c0 4.311.114 4.911 2.181 5.209l1.376.181c.406.298.285 1.316-.114 1.5a83.51 83.51 0 00-5.566-.184c-2.067 0-3.789.064-5.507.184-.405-.184-.519-1.202-.117-1.5l1.32-.181c2.123-.298 2.177-.898 2.177-5.209v-27.076c0-3.534-.054-3.892-1.779-4.971l-.573-.362c-.284-.177-.284-1.015 0-1.195 1.437-.479 4.134-1.377 6.2-2.516.228 0 .459.121.576.359-.06 1.795-.174 4.793-.174 7.429V309.5zm56.996.596c0 2.398.345 3.835 1.377 4.257.174.177.174.539-.054.713-.693 0-1.725.245-2.814.543-3.044.837-7.177 1.557-10.276 1.557-6.832 0-13.086-1.976-17.504-6.648-3.446-3.594-5.282-8.323-5.282-13.599 0-5.088 1.608-10.242 5.168-14.195 3.846-4.193 9.523-7.01 18.191-7.01 3.273 0 6.314.66 7.289.901 1.091.238 2.87.66 3.557.539 0 1.976.348 5.095.864 8.685-.171.476-1.203.54-1.551.181-1.608-6.471-5.912-8.511-11.763-8.511-11.137 0-16.014 8.27-16.014 17.253 0 11.499 5.681 20.549 17.22 20.549 3.56 0 5.677-.781 6.313-1.799.288-.418.573-1.5.573-3.416v-2.395c0-5.031-.174-5.389-3.735-5.808l-2.522-.301c-.459-.238-.402-1.317 0-1.498 1.668.121 4.82.181 8.21.181 2.237 0 4.187-.06 6.082-.181.399.242.459 1.139.057 1.498l-.921.12c-2.405.298-2.465 1.976-2.465 5.031v3.353zm10.218-11.079c0-2.338 0-2.636-1.55-3.711l-.516-.362c-.231-.241-.231-.897.057-1.078 1.323-.479 4.364-2.037 5.798-2.938.288.064.458.185.458.422v3.474c0 .298.057.482.171.539 2.013-1.738 4.19-3.594 6.317-3.594 1.434 0 2.583.958 2.583 2.398 0 1.977-1.551 2.754-2.472 2.754-.573 0-.861-.181-1.263-.419-.861-.603-1.718-.961-2.525-.961-.915 0-1.605.542-2.067 1.199-.573.84-.744 2.575-.744 4.612v8.149c0 4.311.118 5.031 2.295 5.208l2.066.181c.402.298.288 1.317-.113 1.501-2.7-.124-4.361-.184-6.368-.184-2.066 0-3.791.06-5.282.184-.402-.184-.519-1.203-.117-1.501l1.095-.181c2.117-.358 2.177-.897 2.177-5.208v-10.484zm26.92-5.453c-3.788 0-6.602 3.775-6.602 10.364 0 5.452 2.355 11.324 7.406 11.324s6.602-5.513 6.602-10.129c0-5.087-1.953-11.559-7.406-11.559m12.339 10.605c0 7.486-4.933 12.878-12.111 12.878-6.599 0-11.763-4.853-11.763-12.342 0-7.547 5.452-12.936 12.222-12.936 6.431 0 11.652 5.031 11.652 12.4m11.424 3.232c0 4.133.975 6.889 5.339 6.889 1.548 0 3.383-.659 4.646-1.795.747-.717 1.149-1.621 1.149-3.477v-9.82c0-3.892-.402-4.013-2.124-4.733l-.743-.298c-.402-.241-.402-1.078.053-1.323 2.298-.057 5.453-.476 6.716-1.075.288.063.459.181.519.419-.117 1.138-.171 2.997-.171 5.211v10.065c0 4.733.171 6.528 1.779 6.528.686 0 1.433-.12 2.237-.298.345.298.399 1.494-.06 1.732-2.238.482-5.567 1.082-7.516 2.22a.793.793 0 01-.69-.418v-2.459c0-.539-.175-.84-.516-.84-1.725 1.138-4.535 3.118-7.918 3.118-5.051 0-6.95-2.636-6.95-7.486v-10.005c0-3.775 0-4.314-1.719-5.091l-.686-.298c-.348-.301-.288-1.139.11-1.323 2.643-.057 4.881-.593 6.143-1.075.345.063.516.181.576.419-.117 1.018-.174 2.277-.174 5.211v10.002zm29.677 2.757c0 1.916.573 2.632 1.722 3.594 1.145.897 2.927 1.316 4.129 1.316 4.706 0 7.463-4.552 7.463-10.782 0-4.789-2.586-9.643-7.747-9.643-2.469 0-4.247.958-4.88 1.678-.516.657-.687 1.558-.687 3.534v10.303zm-4.25-11.14c0-2.338 0-2.636-1.548-3.715l-.516-.358c-.231-.241-.231-.901.057-1.079 1.491-.663 4.19-2.096 5.681-3.235.348 0 .576.12.687.418-.111 1.079-.228 1.98-.228 2.757 0 .419.117.78.516.78.747-.361 4.364-2.816 8.038-2.816 5.795 0 9.526 4.91 9.526 10.959 0 8.33-5.855 14.319-14.004 14.319-1.035 0-2.639-.121-3.158-.242-.516.121-.801.419-.801 1.675v6.29c0 4.257.111 4.793 2.177 5.095l2.238.301c.405.295.288 1.313-.111 1.494-2.757-.12-4.421-.181-6.431-.181-2.066 0-3.788.061-5.392.181-.402-.181-.516-1.199-.114-1.494l1.202-.184c2.127-.298 2.181-.898 2.181-5.212v-25.753z" fill="#114984" fill-rule="nonzero"/><path d="M617.213 216.937s138.084-6.327 172.288 2.331c13.126 3.319 12.396 6.652 15.317 8.313 2.914 1.655 13.739 2.827 20.19 4.214 6.146 1.319 10.665 6.585 7.02 8.236-3.637 1.661-10.667 1.728-15.772 2.556-5.101.83-11.562 1.393-17.209 5.359-4.844 3.393-8.31 7.107-1.752 10.423 6.572 3.326 22.153 4.853 22.153 9.841 0 4.984-2.458 5.114-10.48 6.779-8.022 1.655-21.875 3.312-33.548 3.312-11.669 0-56.247 10.896-71.293 7.359-18.86-4.441-37.359-4.033-52.666-4.87-15.317-.824-25.08-6.635-33.829-7.462-8.752-.824-33.266-3.333-43.472-8.314-10.202-4.984-4.374-12.466-4.374-12.466s11.662-.821 16.773-2.485c5.108-1.655 5.832-6.646 2.191-8.304-3.648-1.664-26.993-4.779-26.266-10.594.727-5.808 40.876-13.404 54.729-14.228" fill="#87a187" fill-rule="nonzero"/><path d="M21.929 264.561c0 6.053-4.911 10.963-10.966 10.963C4.91 275.524 0 270.614 0 264.561c0-6.059 4.91-10.963 10.963-10.963 6.055 0 10.966 4.904 10.966 10.963" fill="#b9bd9c" fill-rule="nonzero"/><path d="M10.963 264.561h640.001" fill="none"/><path fill="#b9bd9c" d="M10.963 262.793h640.001v3.537H10.963z"/><path d="M661.927 264.561c0 6.053-4.9 10.963-10.963 10.963-6.052 0-10.959-4.91-10.959-10.963 0-6.059 4.907-10.963 10.959-10.963a10.955 10.955 0 0110.963 10.963" fill="#fff" fill-rule="nonzero"/><path d="M663.099 264.561c0-6.697-5.437-12.135-12.133-12.135-6.697 0-12.133 5.438-12.133 12.135 0 6.698 5.436 12.135 12.133 12.135 6.696 0 12.133-5.437 12.133-12.135zm-2.345 0c0 5.404-4.386 9.791-9.788 9.791-5.403 0-9.789-4.387-9.789-9.791 0-5.403 4.386-9.79 9.789-9.79 5.402 0 9.788 4.387 9.788 9.79z" fill="#231f20"/><path d="M78.694 199.565c0 4.177 0 4.438 7.124 4.438 14.553 0 21.232-6.27 21.232-18.673 0-10.316-7.569-19.326-20.488-19.326-7.721 0-7.868.392-7.868 6.4v27.161zm-17.223-18.804c0-12.537-.15-14.104-7.127-14.757l-3.859-.392c-1.038-.915-1.038-3.005.148-3.658 9.354-.78 21.975-1.172 34.147-1.172 11.582 0 21.677 1.306 28.209 4.438 7.573 3.527 13.066 9.663 13.066 19.065 0 12.014-10.541 18.02-17.816 20.632-.891.392-.593 1.437 0 2.221 11.877 17.625 19.3 28.728 26.28 33.819 4.156 3.135 8.46 3.916 10.242 4.046.744.526.744 1.96.298 2.616-1.781.389-4.602.781-9.8.781-14.252 0-21.972-5.088-31.029-17.237-4.009-5.483-8.166-12.667-11.73-17.755-2.673-3.919-4.304-4.441-9.204-4.441-4.455 0-4.602.13-4.602 2.87v16.714c0 13.843 1.336 14.235 8.313 15.022l3.269.389c1.039.911.888 3.262-.298 3.788a496.655 496.655 0 00-19.748-.392c-6.531 0-13.213.13-20.043.392-1.189-.526-1.634-2.877-.298-3.788l3.266-.389c6.98-.787 8.316-1.179 8.316-15.022v-47.79zm109.271-8.619c0-5.483-.147-5.745-4.009-5.745h-8.313c-13.659 0-17.668 1.434-23.161 12.011-1.039.784-4.157.392-4.75-.911 2.522-7.054 4.75-15.149 5.788-19.721.298-.389.891-.519 1.635-.519.592 0 1.189.13 1.483.519.744 3.266 2.821 3.396 12.919 3.396h60.574c7.275 0 9.503-.392 11.285-3.396.592-.258 1.185-.519 1.781-.519.891 0 1.635.261 1.93.65-1.484 5.355-2.673 16.586-2.228 20.763-.74 1.045-3.265 1.306-4.602.391-1.929-10.185-4.753-12.664-20.636-12.664h-8.464c-3.858 0-4.009.262-4.009 5.745v56.411c0 13.843 1.337 14.235 8.317 14.888l5.342.519c1.038.914.891 3.266-.298 3.788-8.608-.261-15.29-.392-21.821-.392-6.535 0-13.512.131-23.014.392-1.189-.522-1.337-3.135-.298-3.788l6.236-.65c6.977-.522 8.313-.914 8.313-14.757v-56.411zm141.343 61.633c0 4.569.744 7.965 3.564 9.141.446.526.446 1.564-.147 1.956-1.635 0-4.308.395-7.128 1.048-9.204 1.829-20.341 3.527-28.805 3.527-17.815 0-34.593-4.18-45.726-14.365-8.762-7.965-13.066-18.935-13.066-29.904 0-10.969 4.304-22.2 13.659-30.687 10.54-9.794 26.725-15.408 47.364-15.408 6.977 0 14.546 1.045 19.745 1.96 3.416.649 7.72 1.175 9.502 1.175.147 3.916 1.186 10.574 1.929 20.76-.743 1.306-4.009 1.437-4.749.265-3.266-12.668-13.81-18.938-28.507-18.938-26.132 0-38.75 16.586-38.75 38.786 0 10.444 2.67 21.674 10.688 30.034 8.019 8.354 19.896 11.097 28.655 11.097 7.127 0 11.431-1.042 13.213-3.004.891-1.173 1.337-3.524 1.337-8.223v-4.706c0-9.268-.148-10.055-10.096-11.485l-5.345-.787c-1.039-.915-1.039-3.132.147-3.789 5.791.265 12.919.396 23.165.396 6.679 0 11.726-.131 18.11-.396 1.487.657 1.635 2.874.298 3.789l-2.673.392c-5.493.653-6.384 1.825-6.384 9.793v7.573zm133.326 0c0 4.569.741 7.965 3.561 9.141.445.526.445 1.564-.144 1.956-1.638 0-4.308.395-7.128 1.048-9.207 1.829-20.344 3.527-28.805 3.527-17.815 0-34.593-4.18-45.726-14.365-8.762-7.965-13.066-18.935-13.066-29.904 0-10.969 4.304-22.2 13.659-30.687 10.54-9.794 26.721-15.408 47.361-15.408 6.98 0 14.55 1.045 19.748 1.96 3.413.649 7.717 1.175 9.499 1.175.15 3.916 1.189 10.574 1.932 20.76-.743 1.306-4.012 1.437-4.749.265-3.269-12.668-13.81-18.938-28.51-18.938-26.129 0-38.75 16.586-38.75 38.786 0 10.444 2.673 21.674 10.688 30.034 8.022 8.354 19.896 11.097 28.658 11.097 7.127 0 11.431-1.042 13.213-3.004.891-1.173 1.333-3.524 1.333-8.223v-4.706c0-9.268-.147-10.055-10.091-11.485l-5.346-.787c-1.042-.915-1.042-3.132.147-3.789 5.791.265 12.916.396 23.162.396 6.678 0 11.729-.131 18.113-.396 1.487.657 1.635 2.874.295 3.789l-2.67.392c-5.493.653-6.384 1.825-6.384 9.793v7.573zm47.36 10.186c10.246 0 13.214-10.705 13.214-20.76 0-10.972-4.308-23.898-15.29-23.898-7.573 0-13.512 6.79-13.512 21.283 0 11.883 4.9 23.375 15.588 23.375m30.735-22.98c0 18.542-14.848 28.205-32.517 28.205-17.075 0-31.327-9.532-31.327-26.641 0-17.497 15.146-28.467 32.516-28.467 16.778 0 31.328 9.925 31.328 26.903m11.725-45.183c0-8.748-.148-9.663-3.859-11.622l-1.634-.914c-.891-.523-1.035-2.61 0-3.005 5.791-1.433 13.515-4.177 19.45-6.267.894-.13 1.782.392 2.077 1.045-.295 5.222-.446 13.321-.446 18.935v57.848c0 9.659.596 11.1 5.647 11.753l3.263.392c1.041.911.89 3.262-.295 3.784-6.089-.261-11.137-.391-16.627-.391-4.9 0-9.951.13-16.037.391-1.189-.522-1.34-2.873-.298-3.784l3.118-.392c5.048-.653 5.641-2.094 5.641-11.753v-56.02zm55.527 26.246c-3.115 0-3.115.261-3.115 4.05v25.723c0 9.66.593 11.1 5.791 11.623l5.788.522c1.042.911.891 3.263-.298 3.788a467.191 467.191 0 00-19.447-.395c-4.9 0-9.948.131-16.037.395-1.186-.525-1.336-2.877-.295-3.788l3.263-.392c5.051-.653 5.647-2.093 5.647-11.753v-25.854c0-3.527-.151-3.919-2.676-3.919h-5.346c-1.186-.522-1.484-2.217-.442-3.001l6.384-2.874c1.038-.522 2.08-1.306 2.08-2.873v-2.348c0-5.617.593-12.015 3.115-18.677 3.858-10.316 13.809-18.281 27.763-18.281 10.243 0 16.925 4.049 16.925 9.532 0 3.658-3.711 6.271-7.272 6.271-2.227 0-3.416-.784-4.311-1.829-4.746-6.009-8.011-8.622-11.579-8.622-5.044 0-9.053 8.883-9.053 28.467v3.919c0 3.919.147 4.18 3.266 4.18h15.588c.596.392.891 1.176.891 2.087 0 2.22-.891 3.396-2.077 4.049h-14.553z" fill="#114984" fill-rule="nonzero"/><path d="M687.303 277.19c12.282 0 22.568 3.179 26.041 7.56 0-.104.061-.191.061-.285 0-7.493-11.907-13.558-26.588-13.558-14.67 0-26.564 6.065-26.564 13.558 0 .422.157.834.241 1.233 2.633-4.854 13.609-8.508 26.809-8.508" fill="#205026" fill-rule="nonzero"/><path d="M686.818 298.003c14.49 0 26.213-5.915 26.528-13.254-3.474-4.381-13.76-7.559-26.042-7.559-13.203 0-24.176 3.654-26.809 8.507 1.263 6.917 12.494 12.306 26.323 12.306" fill="#298440" fill-rule="nonzero"/><path d="M686.455 92.272s26.451-15.561 32.681 4.666c6.216 20.224 38.896 24.886 38.896 24.886s-13.712 26.213-42.423 2.14c-24.806-20.803-29.154-2.14-29.154-2.14V92.272z" fill="#f15722" fill-rule="nonzero"/><path d="M684.899 91.382v30.442l3.071.353s1.303-5.669 6.866-6.411c4.171-.556 10.382 1.515 19.773 9.391 12.032 10.087 21.597 11.61 28.687 9.969 10.839-2.509 16.115-12.581 16.115-12.581l1.02-1.95-2.179-.311s-11.498-1.642-22.01-7.223c-6.814-3.619-13.256-8.891-15.619-16.58-1.379-4.476-3.685-7.344-6.44-9.106-4.063-2.599-9.182-2.774-14.006-1.885-7.658 1.411-14.511 5.441-14.511 5.441l-.767.451zm70.585 31.568c-4.027-.797-12.642-2.861-20.701-7.141-7.525-3.996-14.525-9.924-17.134-18.413-1.114-3.616-2.917-5.976-5.143-7.4-3.408-2.18-7.719-2.192-11.765-1.446-5.652 1.041-10.831 3.618-12.73 4.638v22.775c1.445-1.536 3.51-2.894 6.414-3.281 4.643-.619 11.728 1.322 22.183 10.09 10.938 9.171 19.541 10.814 25.986 9.323 6.715-1.555 10.981-6.439 12.89-9.145z" fill="#231f20"/><path d="M682.722 90.696v195.281h7.466V90.696h-7.466z" fill="#231f20"/></g></svg>