<svg viewBox="0 0 292 250" xmlns="http://www.w3.org/2000/svg" fill-rule="evenodd" clip-rule="evenodd" stroke-linejoin="round" stroke-miterlimit="2"><path fill="none" d="M0 0h291.667v250H0z"/><path d="M65.146 150.432s138.084-6.327 172.288 2.332c13.126 3.319 12.396 6.652 15.317 8.313 2.914 1.654 13.739 2.827 20.19 4.213 6.146 1.32 10.665 6.585 7.021 8.237-3.638 1.661-10.668 1.728-15.773 2.555-5.101.831-11.562 1.394-17.209 5.359-4.843 3.393-8.31 7.108-1.752 10.424 6.572 3.326 22.153 4.853 22.153 9.84 0 4.984-2.458 5.115-10.48 6.78-8.022 1.654-21.875 3.312-33.548 3.312-11.669 0-56.247 10.896-71.292 7.359-18.861-4.442-37.36-4.033-52.667-4.87-15.317-.824-25.08-6.635-33.829-7.463-8.752-.824-33.266-3.332-43.472-8.313-10.202-4.984-4.374-12.467-4.374-12.467s11.662-.82 16.774-2.485c5.107-1.654 5.831-6.645 2.19-8.303-3.647-1.665-26.993-4.78-26.266-10.594.727-5.808 40.876-13.405 54.729-14.229" fill="#87a187" fill-rule="nonzero"/><path d="M109.86 198.057c0 6.052-4.9 10.962-10.963 10.962-6.052 0-10.959-4.91-10.959-10.962 0-6.059 4.907-10.963 10.959-10.963a10.955 10.955 0 0110.963 10.963" fill="#fff" fill-rule="nonzero"/><path d="M111.032 198.057c0-6.698-5.437-12.135-12.133-12.135-6.697 0-12.133 5.437-12.133 12.135 0 6.697 5.436 12.135 12.133 12.135 6.696 0 12.133-5.438 12.133-12.135zm-2.344 0c0 5.403-4.387 9.79-9.789 9.79-5.403 0-9.789-4.387-9.789-9.79 0-5.404 4.386-9.791 9.789-9.791 5.402 0 9.789 4.387 9.789 9.791z" fill="#231f20"/><path d="M135.236 210.686c12.282 0 22.568 3.178 26.041 7.559 0-.103.061-.19.061-.284 0-7.493-11.907-13.559-26.588-13.559-14.67 0-26.564 6.066-26.564 13.559 0 .422.157.834.241 1.232 2.633-4.853 13.609-8.507 26.809-8.507" fill="#205026" fill-rule="nonzero"/><path d="M134.751 231.499c14.49 0 26.213-5.915 26.528-13.254-3.474-4.381-13.76-7.56-26.042-7.56-13.203 0-24.176 3.655-26.809 8.508 1.263 6.917 12.494 12.306 26.323 12.306" fill="#298440" fill-rule="nonzero"/><path d="M134.388 25.768s26.451-15.561 32.681 4.666c6.216 20.223 38.896 24.886 38.896 24.886s-13.712 26.212-42.423 2.14c-24.806-20.803-29.154-2.14-29.154-2.14V25.768z" fill="#f15722" fill-rule="nonzero"/><path d="M132.833 24.878V55.32l3.071.353s1.303-5.669 6.865-6.411c4.171-.556 10.383 1.515 19.773 9.39 12.032 10.088 21.597 11.611 28.687 9.97 10.84-2.509 16.115-12.581 16.115-12.581l1.02-1.95-2.179-.311s-11.498-1.642-22.009-7.224c-6.815-3.619-13.257-8.891-15.62-16.579-1.379-4.476-3.685-7.344-6.44-9.106-4.063-2.6-9.182-2.774-14.006-1.885-7.658 1.411-14.511 5.441-14.511 5.441l-.766.451zm70.585 31.568c-4.028-.797-12.642-2.862-20.702-7.142-7.525-3.996-14.525-9.923-17.134-18.412-1.114-3.616-2.917-5.976-5.143-7.4-3.408-2.18-7.719-2.192-11.765-1.446-5.652 1.041-10.831 3.617-12.73 4.638v22.774c1.445-1.536 3.51-2.893 6.414-3.28 4.643-.62 11.729 1.322 22.183 10.09 10.938 9.17 19.541 10.814 25.986 9.322 6.716-1.554 10.981-6.438 12.891-9.144z" fill="#231f20"/><path d="M130.655 24.191v195.282h7.466V24.191h-7.466z" fill="#231f20"/></svg>