<svg viewBox="0 0 500 500" xmlns="http://www.w3.org/2000/svg" fill-rule="evenodd" clip-rule="evenodd" stroke-linejoin="round" stroke-miterlimit="2"><path fill="none" d="M-1000 0h3000v500h-3000z"/><path d="M386.974 114.378H110.816c-15.246 0-27.616 12.37-27.616 27.616V326.1c0 15.246 12.37 27.616 27.616 27.616h110.463l-9.205 27.615H170.65a13.775 13.775 0 00-13.808 13.808 13.775 13.775 0 0013.808 13.808h156.49a13.775 13.775 0 0013.808-13.808 13.775 13.775 0 00-13.808-13.808h-41.424l-9.205-27.615h110.463c15.247 0 27.616-12.37 27.616-27.616V141.994c0-15.246-12.369-27.616-27.616-27.616zm-9.205 202.516H120.021V151.199h257.748v165.695z" fill="#849b0d" fill-rule="nonzero"/></svg>