<svg viewBox="0 0 500 500" xmlns="http://www.w3.org/2000/svg" fill-rule="evenodd" clip-rule="evenodd" stroke-linejoin="round" stroke-miterlimit="2"><path fill="none" d="M-500 0h3000v500H-500z"/><path d="M247.715 192.623c-30.504 0-55.232 28.847-55.232 64.437 0 35.584 24.728 64.437 55.232 64.437 30.492 0 55.231-28.841 55.231-64.437 0-35.59-24.727-64.437-55.231-64.437zm23.013 96.656a4.602 4.602 0 01-4.603 4.602h-36.821a4.6 4.6 0 01-4.602-4.602v-9.206a4.6 4.6 0 014.602-4.602h9.206v-31.897l-.271.179a4.6 4.6 0 01-6.38-1.278l-5.109-7.657a4.595 4.595 0 011.277-6.381l8.82-5.88a13.808 13.808 0 017.657-2.318h7.813a4.602 4.602 0 014.603 4.603v50.629h9.205a4.601 4.601 0 014.603 4.602v9.206zM413.41 146.597H82.02c-10.166 0-18.411 8.244-18.411 18.41v184.106c0 10.166 8.245 18.41 18.411 18.41h331.39c10.166 0 18.41-8.244 18.41-18.41V165.007c0-10.166-8.244-18.41-18.41-18.41zm-9.205 156.489c-20.338 0-36.822 16.484-36.822 36.822H128.046c0-20.338-16.483-36.822-36.821-36.822v-92.052c20.338 0 36.821-16.484 36.821-36.822h239.337c0 20.338 16.484 36.822 36.822 36.822v92.052z" fill-rule="nonzero"/></svg>