<svg viewBox="0 0 500 500" xmlns="http://www.w3.org/2000/svg" fill-rule="evenodd" clip-rule="evenodd" stroke-linejoin="round" stroke-miterlimit="2"><path fill="none" d="M0 0h3000v500H0z"/><path d="M323.943 131.917h-46.026c0-20.309-16.512-36.821-36.821-36.821-20.309 0-36.821 16.512-36.821 36.821h-46.027c-15.246 0-27.616 12.369-27.616 27.616v202.516c0 15.246 12.37 27.616 27.616 27.616h165.695c15.247 0 27.616-12.37 27.616-27.616V159.533c0-15.247-12.369-27.616-27.616-27.616zm-82.847-13.808a13.775 13.775 0 0113.808 13.808 13.775 13.775 0 01-13.808 13.808 13.775 13.775 0 01-13.808-13.808 13.775 13.775 0 0113.808-13.808zm82.847 240.488a3.462 3.462 0 01-3.452 3.452H161.7a3.463 3.463 0 01-3.452-3.452V162.985a3.462 3.462 0 013.452-3.452h24.164v20.712c0 3.797 3.107 6.903 6.904 6.903h96.655c3.798 0 6.904-3.106 6.904-6.903v-20.712h24.164a3.462 3.462 0 013.452 3.452v195.612z" fill="#849b0d" fill-rule="nonzero"/></svg>