<svg viewBox="0 0 500 500" xmlns="http://www.w3.org/2000/svg" fill-rule="evenodd" clip-rule="evenodd" stroke-linejoin="round" stroke-miterlimit="2"><path fill="none" d="M-2500 0H500v500h-3000z"/><path d="M143.124 315.586h-36.821c-5.05 0-9.205 4.156-9.205 9.206v36.821c0 5.05 4.155 9.205 9.205 9.205h36.821c5.05 0 9.205-4.155 9.205-9.205v-36.821c0-5.05-4.155-9.206-9.205-9.206zm0-184.105h-36.821c-5.05 0-9.205 4.155-9.205 9.205v36.821c0 5.05 4.155 9.205 9.205 9.205h36.821c5.05 0 9.205-4.155 9.205-9.205v-36.821c0-5.05-4.155-9.205-9.205-9.205zm0 92.053h-36.821c-5.05 0-9.205 4.155-9.205 9.205v36.821c0 5.05 4.155 9.205 9.205 9.205h36.821c5.05 0 9.205-4.155 9.205-9.205v-36.821c0-5.05-4.155-9.205-9.205-9.205zm239.337 101.258H198.356c-5.05 0-9.206 4.155-9.206 9.205v18.411c0 5.049 4.156 9.205 9.206 9.205h184.105c5.05 0 9.206-4.156 9.206-9.205v-18.411c0-5.05-4.156-9.205-9.206-9.205zm0-184.106H198.356c-5.05 0-9.206 4.155-9.206 9.205v18.411c0 5.05 4.156 9.205 9.206 9.205h184.105c5.05 0 9.206-4.155 9.206-9.205v-18.411c0-5.05-4.156-9.205-9.206-9.205zm0 92.053H198.356c-5.05 0-9.206 4.155-9.206 9.205v18.411c0 5.05 4.156 9.205 9.206 9.205h184.105c5.05 0 9.206-4.155 9.206-9.205v-18.411c0-5.05-4.156-9.205-9.206-9.205z" fill-rule="nonzero"/></svg>