<svg viewBox="0 0 500 500" xmlns="http://www.w3.org/2000/svg" fill-rule="evenodd" clip-rule="evenodd" stroke-linejoin="round" stroke-miterlimit="2"><path fill="none" d="M-1500 0h3000v500h-3000z"/><path d="M365.321 123.147H125.984c-15.252 0-27.616 12.364-27.616 27.616V353.28c0 15.252 12.364 27.615 27.616 27.615h239.337c15.252 0 27.616-12.363 27.616-27.615V150.763c0-15.252-12.364-27.616-27.616-27.616zm-3.452 230.133H129.436a3.469 3.469 0 01-3.452-3.452V154.215a3.469 3.469 0 013.452-3.452h232.433a3.469 3.469 0 013.452 3.452v195.613a3.469 3.469 0 01-3.452 3.452zm-24.164-52.931v13.808a6.904 6.904 0 01-6.904 6.904H215.735a6.905 6.905 0 01-6.904-6.904v-13.808a6.905 6.905 0 016.904-6.904h115.066a6.904 6.904 0 016.904 6.904zm0-55.232v13.808a6.904 6.904 0 01-6.904 6.904H215.735a6.905 6.905 0 01-6.904-6.904v-13.808a6.905 6.905 0 016.904-6.904h115.066a6.905 6.905 0 016.904 6.904zm0-55.231v13.808a6.905 6.905 0 01-6.904 6.904H215.735a6.905 6.905 0 01-6.904-6.904v-13.808a6.905 6.905 0 016.904-6.904h115.066a6.904 6.904 0 016.904 6.904zm-144.983 6.904c0 11.438-9.273 20.712-20.712 20.712-11.438 0-20.712-9.274-20.712-20.712 0-11.439 9.274-20.712 20.712-20.712 11.439 0 20.712 9.273 20.712 20.712zm0 55.231c0 11.439-9.273 20.712-20.712 20.712-11.438 0-20.712-9.273-20.712-20.712 0-11.438 9.274-20.711 20.712-20.711 11.439 0 20.712 9.273 20.712 20.711zm0 55.232c0 11.439-9.273 20.712-20.712 20.712-11.438 0-20.712-9.273-20.712-20.712s9.274-20.712 20.712-20.712c11.439 0 20.712 9.273 20.712 20.712z" fill="#849b0d" fill-rule="nonzero"/></svg>