<svg viewBox="0 0 500 500" xmlns="http://www.w3.org/2000/svg" fill-rule="evenodd" clip-rule="evenodd" stroke-linejoin="round" stroke-miterlimit="2"><path fill="none" d="M-2000 0h3000v500h-3000z"/><path d="M344.532 99.262H142.015c-15.246 0-27.615 12.37-27.615 27.616v239.338c0 15.246 12.369 27.615 27.615 27.615h202.517c15.246 0 27.615-12.369 27.615-27.615V126.878c0-15.246-12.369-27.616-27.615-27.616zM243.273 375.421c-10.183 0-18.41-8.227-18.41-18.411 0-10.183 8.227-18.41 18.41-18.41 10.184 0 18.411 8.227 18.411 18.41 0 10.184-8.227 18.411-18.411 18.411zm101.259-62.136c0 3.797-3.107 6.904-6.904 6.904H148.919c-3.797 0-6.904-3.107-6.904-6.904V133.782c0-3.797 3.107-6.904 6.904-6.904h188.709c3.797 0 6.904 3.107 6.904 6.904v179.503z" fill-rule="nonzero"/></svg>