<svg viewBox="0 0 500 167" xmlns="http://www.w3.org/2000/svg" fill-rule="evenodd" clip-rule="evenodd" stroke-linejoin="round" stroke-miterlimit="2"><path fill="none" d="M0 0h500v166.667H0z"/><clipPath id="a"><path d="M0 0h500v166.667H0z"/></clipPath><g clip-path="url(#a)"><path fill="none" d="M166.667 0h166.667v166.667H166.667z"/><path d="M217.451 103.785a37.796 37.796 0 0020.471 6.001c24.798 0 38.806-20.945 37.963-39.73a27.092 27.092 0 006.664-6.913 26.641 26.641 0 01-7.67 2.101 13.363 13.363 0 005.87-7.388 26.703 26.703 0 01-8.479 3.242 13.337 13.337 0 00-9.75-4.218c-8.62 0-14.956 8.046-13.008 16.401-11.102-.557-20.943-5.875-27.528-13.956-3.5 6.003-1.816 13.859 4.133 17.833a13.28 13.28 0 01-6.051-1.673c-.145 6.188 4.288 11.976 10.712 13.267-1.883.513-3.94.626-6.028.227a13.352 13.352 0 0012.474 9.275c-5.615 4.403-12.686 6.367-19.773 5.531z" fill="#fff" fill-rule="nonzero"/><path fill="none" d="M0 0h166.667v166.667H0z"/><path d="M74.026 120.26h14.87V83.02H99.27l1.107-12.469H88.896V63.45c0-2.941.59-4.104 3.432-4.104h8.049V46.407H90.08c-11.065 0-16.054 4.873-16.054 14.203v9.941H66.29v12.626h7.736v37.083z" fill="#fff" fill-rule="nonzero"/><path fill="none" d="M333.333 0H500v166.665H333.333z"/><path d="M416.668 49.836c-9.098 0-10.238.039-13.81.202-3.565.163-6.001.729-8.132 1.556-2.202.855-4.071 2.003-5.932 3.865-1.862 1.863-3.008 3.73-3.865 5.932-.826 2.132-1.394 4.567-1.556 8.13-.165 3.574-.203 4.714-.203 13.813 0 9.096.038 10.236.203 13.81.162 3.563.73 6 1.556 8.13.857 2.204 2.003 4.071 3.865 5.932 1.861 1.862 3.73 3.008 5.932 3.863 2.131.829 4.567 1.395 8.132 1.558 3.572.163 4.712.202 13.81.202 9.097 0 10.237-.039 13.811-.202 3.565-.163 5.998-.729 8.13-1.558 2.204-.855 4.071-2.001 5.934-3.863 1.86-1.861 3.006-3.728 3.861-5.932.829-2.13 1.395-4.567 1.558-8.13.163-3.574.202-4.714.202-13.81 0-9.099-.039-10.239-.202-13.813-.163-3.563-.729-5.998-1.558-8.13-.855-2.202-2.001-4.069-3.861-5.932-1.863-1.862-3.73-3.01-5.934-3.865-2.132-.827-4.565-1.393-8.13-1.556-3.574-.163-4.714-.202-13.811-.202zm0 6.035c8.943 0 10.003.034 13.535.195 3.266.15 5.039.695 6.22 1.155 1.563.607 2.678 1.334 3.851 2.505 1.173 1.173 1.898 2.288 2.505 3.851.458 1.181 1.005 2.954 1.155 6.22.159 3.532.195 4.592.195 13.537 0 8.942-.036 10.002-.195 13.534-.15 3.266-.697 5.037-1.155 6.22-.607 1.565-1.332 2.68-2.505 3.849-1.173 1.173-2.288 1.9-3.851 2.507-1.181.46-2.954 1.005-6.22 1.155-3.532.159-4.592.195-13.535.195-8.944 0-10.004-.036-13.536-.195-3.266-.15-5.041-.695-6.22-1.155-1.563-.607-2.678-1.334-3.849-2.507-1.175-1.169-1.902-2.284-2.507-3.849-.46-1.183-1.005-2.954-1.155-6.22-.161-3.532-.195-4.592-.195-13.534 0-8.945.034-10.005.195-13.537.15-3.266.695-5.039 1.155-6.22.605-1.563 1.332-2.678 2.507-3.851 1.171-1.171 2.286-1.898 3.849-2.505 1.179-.46 2.954-1.005 6.22-1.155 3.532-.161 4.592-.195 13.536-.195z" fill="#fff" fill-rule="nonzero"/><path d="M416.668 94.499c-6.167 0-11.167-5-11.167-11.165 0-6.168 5-11.166 11.167-11.166s11.164 4.998 11.164 11.166c0 6.165-4.997 11.165-11.164 11.165zm0-28.366c-9.501 0-17.202 7.699-17.202 17.201 0 9.499 7.701 17.198 17.202 17.198 9.499 0 17.199-7.699 17.199-17.198 0-9.502-7.7-17.201-17.199-17.201zm21.9-.68a4.02 4.02 0 11-8.04-.002 4.02 4.02 0 018.04.002z" fill="#fff" fill-rule="nonzero"/></g></svg>